<?xml version="1.0" encoding="UTF-8"?>
<svg id="Layer_2" xmlns="http://www.w3.org/2000/svg" viewBox="0 0 283.12 105.34">
  <defs>
    <style>
      .cls-1 {
        fill: #3effac;
      }

      .cls-2 {
        fill: #fff;
      }
    </style>
  </defs>
  <g id="Layer_1-2" data-name="Layer_1">
    <g>
      <path class="cls-1" d="M256.37,44.78l-1.53-2.27c48.31-56.15,25.65-56.67-1.05-1.56l-16.14-23.93h-13.91l18.34,27.44c-4.02,3.53-6.52,10.54,3.3,4.93l1.54,2.3c-48.44,56.28-25.63,56.8,1.04,1.55l.77,1.15,15.27,22.89h13.95l-18.31-27.67c3.89-3.57,6.22-10.28-3.25-4.82"/>
      <path class="cls-2" d="M0,95.49h2.2c.89,0,1.57.18,2.06.54.48.36.73.87.73,1.52,0,.45-.13.84-.39,1.15-.26.31-.63.54-1.12.67.57.14,1,.38,1.3.72.3.34.45.78.45,1.3,0,.73-.26,1.29-.78,1.69-.52.4-1.26.6-2.22.6H0v-8.19ZM1.13,96.39v2.61h.84c.59,0,1.04-.12,1.36-.35.32-.23.47-.56.47-.99s-.15-.73-.44-.95c-.3-.22-.72-.33-1.28-.33h-.95ZM1.13,99.88v2.86h.87c.66,0,1.17-.12,1.51-.37.34-.25.51-.61.51-1.08s-.16-.82-.47-1.05c-.31-.24-.78-.36-1.4-.36h-1.01Z"/>
      <polygon class="cls-2" points="6.79 95.49 11.22 95.49 11.22 96.37 7.93 96.37 7.93 98.97 11.04 98.97 11.04 99.89 7.93 99.89 7.93 102.74 11.33 102.74 11.33 103.68 6.79 103.68 6.79 95.49"/>
      <polygon class="cls-2" points="11.9 95.49 13.25 95.49 15.51 99.37 17.82 95.49 19.07 95.49 16.05 100.29 16.05 103.68 14.9 103.68 14.9 100.32 11.9 95.49"/>
      <path class="cls-2" d="M23,95.34c1.14,0,2.05.38,2.71,1.14.67.76,1,1.79,1,3.11s-.33,2.36-1,3.11c-.66.76-1.57,1.14-2.72,1.14s-2.05-.38-2.72-1.14c-.67-.76-1-1.8-1-3.11s.33-2.35,1-3.11c.67-.76,1.57-1.14,2.72-1.14M23,96.25c-.76,0-1.38.3-1.84.91-.46.61-.69,1.41-.69,2.42s.23,1.82.69,2.42,1.07.9,1.84.9,1.38-.3,1.84-.9c.46-.6.69-1.41.69-2.42s-.23-1.81-.7-2.42c-.46-.61-1.08-.91-1.84-.91"/>
      <path class="cls-2" d="M28.34,95.49h1.44l3.56,6.37c.05.09.11.23.18.42.07.19.14.41.22.67-.05-.3-.09-.57-.12-.81s-.04-.45-.04-.62v-6.04h1.05v8.19h-1.41l-3.62-6.43c-.05-.08-.1-.21-.17-.39-.07-.18-.14-.42-.22-.71.06.44.1.78.12,1.01.03.24.04.41.04.51v6h-1.05v-8.19Z"/>
      <path class="cls-2" d="M36.67,95.49h1.91c1.53,0,2.69.34,3.46,1.03s1.16,1.72,1.16,3.08-.4,2.31-1.2,3.02c-.8.71-1.95,1.06-3.43,1.06h-1.89v-8.19ZM37.81,96.41v6.32h.93c1.02,0,1.82-.28,2.39-.83.57-.55.86-1.34.86-2.34s-.27-1.81-.82-2.34c-.55-.53-1.35-.8-2.41-.8h-.95Z"/>
      <path class="cls-2" d="M48.15,95.49h2.21c.93,0,1.64.18,2.11.53.47.35.71.88.71,1.57,0,.52-.15.95-.46,1.29-.31.34-.75.58-1.33.7.25.07.45.18.6.33.15.16.31.43.48.82l1.24,2.94h-1.23l-1.08-2.68c-.14-.35-.32-.59-.54-.73-.22-.14-.52-.21-.92-.21h-.66v3.62h-1.13v-8.19ZM49.29,96.37v2.79h.88c.57,0,1.02-.13,1.35-.38s.49-.6.49-1.04c0-.47-.15-.82-.45-1.04-.3-.22-.77-.33-1.41-.33h-.85Z"/>
      <polygon class="cls-2" points="54.89 95.49 59.32 95.49 59.32 96.37 56.03 96.37 56.03 98.97 59.14 98.97 59.14 99.89 56.03 99.89 56.03 102.74 59.43 102.74 59.43 103.68 54.89 103.68 54.89 95.49"/>
      <path class="cls-2" d="M63.5,95.49h1.39l3.21,8.19h-1.24l-.79-2.1h-3.9l-.79,2.1h-1.16l3.27-8.19ZM64.18,96.5l-1.63,4.17h3.2l-1.57-4.17Z"/>
      <path class="cls-2" d="M68.99,95.49h1.91c1.53,0,2.69.34,3.46,1.03s1.16,1.72,1.16,3.08-.4,2.31-1.2,3.02c-.8.71-1.95,1.06-3.43,1.06h-1.89v-8.19ZM70.14,96.41v6.32h.93c1.02,0,1.82-.28,2.39-.83.57-.55.86-1.34.86-2.34s-.27-1.81-.82-2.34c-.55-.53-1.35-.8-2.41-.8h-.95Z"/>
      <rect class="cls-2" x="77.09" y="95.49" width="1.15" height="8.19"/>
      <path class="cls-2" d="M80.26,95.49h1.44l3.56,6.37c.05.09.11.23.18.42.07.19.14.41.22.67-.05-.3-.09-.57-.12-.81-.03-.24-.04-.45-.04-.62v-6.04h1.05v8.19h-1.41l-3.62-6.43c-.05-.08-.1-.21-.17-.39-.07-.18-.14-.42-.22-.71.06.44.1.78.12,1.01.03.24.04.41.04.51v6h-1.05v-8.19Z"/>
      <polygon class="cls-2" points="88.59 95.49 93.02 95.49 93.02 96.37 89.73 96.37 89.73 98.97 92.84 98.97 92.84 99.89 89.73 99.89 89.73 102.74 93.13 102.74 93.13 103.68 88.59 103.68 88.59 95.49"/>
      <path class="cls-2" d="M99.12,95.71l-.12,1c-.25-.12-.51-.21-.78-.28-.27-.06-.55-.09-.84-.09-.5,0-.88.09-1.16.28-.28.18-.42.44-.42.76,0,.25.09.48.28.69s.59.48,1.22.82c.81.45,1.37.85,1.68,1.22.31.36.46.78.46,1.25,0,.7-.25,1.27-.76,1.71-.51.45-1.16.67-1.96.67-.39,0-.76-.03-1.11-.09-.35-.06-.68-.15-.99-.27l.12-1.1c.34.18.66.31.98.39.32.09.62.13.92.13.48,0,.87-.11,1.16-.32.29-.22.44-.5.44-.85,0-.55-.57-1.15-1.72-1.8-.19-.11-.34-.19-.44-.25-.44-.25-.78-.56-1.03-.93-.25-.36-.38-.74-.38-1.12,0-.64.24-1.14.73-1.52.49-.38,1.15-.56,1.98-.56.31,0,.61.02.9.07.29.05.57.12.84.21"/>
      <path class="cls-2" d="M105.32,95.71l-.12,1c-.25-.12-.51-.21-.78-.28-.27-.06-.55-.09-.84-.09-.5,0-.88.09-1.16.28-.28.18-.42.44-.42.76,0,.25.09.48.28.69s.59.48,1.22.82c.81.45,1.37.85,1.68,1.22.31.36.46.78.46,1.25,0,.7-.25,1.27-.76,1.71-.51.45-1.16.67-1.96.67-.39,0-.76-.03-1.11-.09-.35-.06-.68-.15-.99-.27l.12-1.1c.34.18.66.31.98.39.32.09.62.13.92.13.48,0,.87-.11,1.16-.32.29-.22.44-.5.44-.85,0-.55-.57-1.15-1.72-1.8-.19-.11-.34-.19-.44-.25-.44-.25-.78-.56-1.03-.93-.25-.36-.38-.74-.38-1.12,0-.64.24-1.14.73-1.52.49-.38,1.15-.56,1.98-.56.31,0,.61.02.9.07.29.05.57.12.84.21"/>
      <polygon class="cls-2" points="0 16.78 37.09 16.78 37.09 25.5 11.96 25.5 11.96 41.61 35.76 41.61 35.76 50.53 11.96 50.53 11.96 68.31 37.98 68.31 37.98 77.49 0 77.49 0 16.78"/>
      <path class="cls-2" d="M49.78,16.78h17.39c5.16,0,9.56.36,13.22,1.07,3.66.71,6.66,1.81,8.99,3.29,4.36,2.76,7.63,6.31,9.81,10.64,2.18,4.33,3.27,9.41,3.27,15.25s-1.1,10.92-3.31,15.23c-2.21,4.32-5.52,7.84-9.93,10.58-2.48,1.6-5.59,2.77-9.34,3.52-3.74.75-8.29,1.13-13.65,1.13h-16.45V16.78ZM61.82,25.8v42.34h6.92c6.72,0,11.95-1.86,15.68-5.6,3.73-3.73,5.6-8.96,5.6-15.68s-1.86-12.06-5.58-15.66c-3.72-3.6-9.06-5.4-16.04-5.4h-6.58Z"/>
      <path class="cls-2" d="M162.49,18.7l-1.24,9.53c-.31-.11-.77-.27-1.37-.47-6.07-2.14-10.8-3.2-14.19-3.2-6.78,0-12.3,2.14-16.56,6.43-4.26,4.29-6.39,9.79-6.39,16.51s2.04,11.69,6.11,15.77c4.07,4.07,9.38,6.11,15.94,6.11,1.48,0,3.65-.47,6.49-1.41.62-.2,1.08-.34,1.37-.43l.04-15.51h-11.24v-8.59h22.52v31.36c-4.47,1.48-8.18,2.51-11.11,3.08-2.93.57-5.74.85-8.42.85-10.54,0-18.85-2.8-24.93-8.42-6.08-5.61-9.12-13.26-9.12-22.94s3.1-17.64,9.31-23.35c6.21-5.71,14.73-8.57,25.55-8.57,2.59,0,6.64.68,12.13,2.05,2.25.54,3.94.94,5.08,1.2"/>
      <polygon class="cls-2" points="177.44 16.78 214.52 16.78 214.52 25.5 189.4 25.5 189.4 41.61 213.2 41.61 213.2 50.53 189.4 50.53 189.4 68.31 215.42 68.31 215.42 77.49 177.44 77.49 177.44 16.78"/>
      <path class="cls-2" d="M114.63,102.33h3.12v-3.7c0-.24.05-.47.14-.7.09-.22.22-.43.39-.61.17-.18.38-.33.63-.44.25-.11.52-.16.83-.16s.58.05.82.16c.24.11.45.25.62.44.17.18.3.39.39.62.09.23.14.46.14.69v2.49h1.34v1.12h-1.93c-.2,0-.35-.06-.45-.19-.1-.13-.16-.25-.16-.38v-3.05c0-.21-.07-.39-.22-.54-.15-.15-.33-.23-.55-.23s-.4.08-.56.23c-.15.15-.23.33-.23.54v4.27c0,.14-.05.27-.16.38s-.25.17-.44.17h-3.74c-.39,0-.73-.07-1.04-.21-.3-.14-.56-.33-.78-.55-.21-.23-.38-.49-.5-.77-.12-.29-.17-.58-.17-.88,0-.44.12-.86.35-1.26.24-.4.58-.72,1.03-.95.05-.04.1-.06.14-.08.02-.02.05-.03.1-.04.04-.02.09-.03.15-.03.15,0,.26.06.32.19.01.02.03.05.06.1.03.05.05.11.08.16.01.03.03.06.04.08.01.03.02.05.04.07,0,.02.02.05.03.08,0,0,0,.02.01.04,0,.02.01.03.01.05,0,.12-.06.21-.19.27l-.22.12c-.24.12-.43.29-.56.51-.13.22-.2.45-.2.7,0,.17.03.33.1.48.06.16.16.29.28.41.12.12.26.22.42.29.16.07.33.11.51.11M115.38,104.08c.14,0,.24.04.28.12.04.08.06.15.06.21v.61c0,.08-.03.15-.08.22-.05.07-.14.1-.27.1h-.53c-.12,0-.21-.04-.27-.1-.06-.07-.08-.14-.08-.22v-.61c0-.06.02-.13.07-.21.05-.08.14-.12.28-.12h.53ZM117.08,104.08c.14,0,.24.04.28.12.04.08.07.15.07.21v.61c0,.08-.03.15-.08.22s-.14.1-.27.1h-.52c-.12,0-.2-.03-.27-.1-.06-.07-.09-.14-.09-.23v-.61c0-.08.03-.15.09-.22.06-.07.15-.1.27-.1h.52Z"/>
      <path class="cls-2" d="M125.31,94.39c.14,0,.24.04.28.12.04.08.07.15.07.21v6.02c0,.2-.03.38-.1.57-.06.18-.16.34-.29.48-.13.14-.29.25-.48.33-.2.08-.42.13-.69.13h-1.45v-1.12h1.45c.13,0,.22-.03.28-.08.05-.05.08-.15.08-.3v-6.02c0-.06.02-.13.06-.21.04-.08.14-.12.28-.12h.5Z"/>
      <path class="cls-2" d="M130.74,102.25h-1.24c-.37,0-.71-.07-1.01-.21-.3-.14-.56-.32-.77-.54-.21-.22-.37-.48-.49-.76-.12-.29-.17-.58-.17-.87v-.77c0-.3.06-.59.17-.87.12-.28.28-.54.49-.76.21-.22.47-.4.77-.54.31-.14.64-.21,1.01-.21s.72.07,1.02.21c.3.14.56.32.77.54.21.22.38.47.5.76.12.28.17.57.17.87v3.08c0,.28-.05.55-.16.81-.11.26-.26.5-.47.71-.2.21-.45.38-.73.51-.28.13-.6.19-.95.19h-1.1c-.13,0-.22-.03-.28-.1-.05-.07-.08-.14-.08-.21v-.49c0-.08.03-.15.08-.22.05-.07.15-.1.28-.1h1.1c.15,0,.28-.03.41-.09.13-.06.25-.13.34-.23.1-.09.18-.21.23-.33.06-.13.09-.26.1-.39M128.24,99.87c0,.16.03.32.1.47.07.15.15.29.27.4.11.12.25.21.4.28.15.07.32.1.49.1h1.25v-2.03c0-.16-.03-.31-.09-.46-.06-.15-.15-.28-.26-.4-.11-.12-.24-.21-.4-.28-.15-.07-.32-.1-.5-.1s-.35.03-.5.1c-.15.07-.28.16-.4.28-.11.12-.2.25-.26.4-.06.15-.09.3-.09.46v.77Z"/>
      <path class="cls-2" d="M137.46,101.82c-.2.17-.43.28-.68.34-.25.06-.5.09-.76.09h-2.29c-.13,0-.22-.03-.27-.1-.05-.07-.08-.14-.08-.21v-.49c0-.08.03-.15.08-.22.05-.06.14-.1.27-.1h2.29c.32,0,.54-.05.65-.14.11-.09.17-.27.17-.55v-1.67c0-.12-.02-.23-.07-.34-.05-.11-.11-.21-.2-.29-.09-.09-.19-.16-.3-.21-.11-.05-.23-.08-.37-.08-.17,0-.33.01-.47.04-.15.03-.29.08-.41.16-.02.01-.04.03-.07.05-.02.02-.05.04-.08.05-.04.01-.08.03-.13.05-.05.02-.1.03-.17.03s-.12-.01-.15-.04c-.04-.03-.07-.06-.11-.1-.12-.14-.21-.27-.29-.4-.01-.02-.03-.05-.04-.09-.01-.04-.02-.07-.02-.11,0-.06.02-.11.05-.15.04-.04.08-.08.12-.11.03-.02.06-.04.09-.06.03-.02.05-.03.06-.05.23-.17.49-.28.77-.33.28-.05.56-.08.83-.08.33,0,.62.06.89.18.27.12.49.28.68.47.18.19.33.41.42.65.1.24.15.49.15.75v1.96c0,.12.03.2.08.25.05.05.12.08.2.1.04.02.09.02.15.03.06,0,.12,0,.19.02h.61v1.12h-.58c-.22,0-.43-.03-.65-.1s-.4-.18-.57-.32"/>
      <path class="cls-2" d="M141.64,94.39c.14,0,.24.04.28.12.04.08.07.15.07.21v6.02c0,.2-.03.38-.1.57-.07.18-.16.34-.29.48-.13.14-.29.25-.49.33-.19.08-.42.13-.69.13h-1.45v-1.12h1.45c.13,0,.22-.03.28-.08.05-.05.08-.15.08-.3v-6.02c0-.06.02-.13.07-.21.04-.08.14-.12.28-.12h.5Z"/>
      <path class="cls-2" d="M144.94,101.93c0,.06-.02.13-.06.2-.04.08-.13.11-.27.11h-.51c-.13,0-.22-.03-.27-.1-.05-.07-.08-.14-.08-.21v-7.22c0-.07.03-.14.08-.21.05-.07.14-.1.27-.1h.51c.14,0,.23.04.27.11.04.08.06.14.06.2v7.22Z"/>
      <path class="cls-2" d="M155.18,101.13h1.06v1.12h-.9c-.25,0-.49-.04-.72-.13-.23-.08-.42-.21-.59-.38-.21.16-.44.28-.69.37-.25.09-.53.13-.82.13h-2.63c-.14,0-.26.05-.35.15-.1.1-.15.22-.15.36v1.39c0,.09-.03.16-.09.23s-.15.1-.27.1h-.5c-.13,0-.22-.04-.27-.1-.05-.07-.08-.14-.08-.22v-1.39c0-.2.04-.39.12-.59.08-.2.19-.37.34-.53.15-.16.33-.28.54-.38.21-.1.45-.15.71-.15h.17v-2.03c0-.34.07-.65.2-.94.13-.29.31-.54.53-.75.22-.21.49-.38.78-.5s.61-.18.94-.18c.37,0,.71.07,1.01.21.3.14.56.32.77.54.21.23.37.48.49.76.12.28.17.57.17.86v.78c0,.36-.08.7-.25,1.04.09.14.24.22.47.22M151.26,99.09v2.03h1.25c.18,0,.35-.03.5-.1.15-.07.29-.16.4-.27.11-.11.2-.24.26-.4.06-.15.09-.31.09-.47v-.78c0-.16-.03-.31-.09-.46-.06-.15-.15-.28-.26-.39-.11-.11-.24-.2-.4-.27-.15-.07-.32-.1-.5-.1s-.35.03-.5.1c-.15.07-.29.16-.4.27-.11.11-.2.24-.26.39-.06.15-.09.3-.09.46"/>
      <path class="cls-2" d="M158.76,101.93c-.14.12-.31.2-.51.24-.19.05-.37.07-.54.07h-1.81v-1.12h1.83c.12,0,.21-.03.26-.09.05-.06.08-.16.08-.3v-3.47c0-.08.03-.16.09-.23s.15-.11.27-.11h.49c.13,0,.22.04.28.11.05.07.08.15.08.23v3.63c0,.12.09.2.28.23.05,0,.1.01.15.01h.79v1.12h-.58c-.21,0-.42-.02-.62-.07-.2-.04-.38-.13-.55-.25M157.11,102.86c.12,0,.21.04.27.11.06.07.09.15.09.23v.6c0,.08-.03.15-.09.22s-.15.1-.27.1h-.52c-.15,0-.24-.04-.28-.12-.04-.08-.07-.15-.07-.21v-.6c0-.07.02-.14.07-.22.04-.08.14-.12.28-.12h.52ZM158.8,102.86c.14,0,.24.04.29.12.05.08.07.15.07.22v.6c0,.06-.02.13-.07.21-.05.08-.14.12-.29.12h-.52c-.14,0-.24-.04-.29-.12-.05-.08-.07-.15-.07-.21v-.6c0-.07.02-.14.07-.22.05-.08.14-.12.29-.12h.52Z"/>
      <path class="cls-2" d="M162.76,101.92c-.14.12-.3.21-.48.26-.17.05-.36.07-.54.07h-1.5v-1.12h1.51c.12,0,.21-.03.27-.09.06-.06.08-.16.08-.31v-6.01c0-.06.02-.13.07-.21.04-.08.14-.12.28-.12h.5c.14,0,.24.04.28.12.04.08.07.15.07.21v6.16c0,.06.02.11.07.15.04.04.12.07.24.08.05,0,.1.01.15.01h.81v1.12h-.62c-.21,0-.42-.02-.62-.07-.2-.05-.39-.13-.56-.26"/>
      <path class="cls-2" d="M171.93,101.13v1.12h-7.7v-1.12h2.36l-.93-1.92s-.03-.09-.04-.16v-.12s0-.08.02-.14c0-.03,0-.07.02-.11.07-.28.18-.53.35-.77.17-.24.37-.45.6-.62.23-.17.48-.31.76-.41.27-.1.55-.15.83-.15.34,0,.66.06.97.19.3.12.57.29.81.5.24.21.43.44.57.71.14.27.22.54.24.83v.04c0,.09-.01.16-.04.23l-.93,1.92h2.09ZM166.85,98.9l1.06,2.22h.62l1.06-2.23c-.03-.14-.09-.28-.17-.4-.08-.12-.19-.23-.32-.33-.13-.09-.27-.17-.42-.22-.15-.05-.31-.08-.47-.08s-.3.03-.45.09c-.15.06-.28.14-.4.23-.12.1-.23.21-.32.33-.09.12-.15.25-.19.39"/>
      <path class="cls-2" d="M174.66,101.94c-.14.11-.31.19-.5.23-.18.05-.36.07-.53.07h-2.04v-1.12h2.06c.12,0,.21-.03.27-.09.05-.06.08-.16.08-.3v-3.47c0-.06.02-.13.07-.21.05-.08.14-.13.28-.13h.5c.14,0,.23.04.28.12.05.08.07.15.07.22v3.63c0,.06.02.11.07.14.04.04.12.06.23.08.05.01.1.02.15.02h.77v1.12h-.58c-.15,0-.35-.02-.58-.06-.24-.04-.44-.12-.6-.25M173.37,96.38c-.12,0-.21-.03-.27-.09-.06-.06-.09-.14-.09-.22v-.57c0-.09.03-.16.09-.22.06-.06.15-.09.27-.09h.52c.13,0,.22.04.27.1.05.07.08.14.08.21v.57c0,.07-.03.14-.08.21-.05.07-.14.1-.27.1h-.52ZM174.72,95.5c0-.07.03-.14.08-.21.05-.07.14-.1.27-.1h.52c.12,0,.21.03.27.09s.09.14.09.22v.57c0,.09-.03.16-.09.22-.06.06-.15.09-.27.09h-.52c-.13,0-.22-.03-.27-.1-.05-.07-.08-.14-.08-.21v-.57Z"/>
      <path class="cls-2" d="M178.81,94.39c.14,0,.24.04.28.12.04.08.07.15.07.21v6.02c0,.2-.03.38-.1.57-.07.18-.16.34-.29.48-.13.14-.29.25-.48.33-.2.08-.42.13-.69.13h-1.45v-1.12h1.45c.13,0,.22-.03.28-.08.06-.05.08-.15.08-.3v-6.02c0-.06.02-.13.07-.21.04-.08.14-.12.28-.12h.5Z"/>
      <path class="cls-2" d="M182.12,101.93c0,.06-.02.13-.07.2s-.13.11-.27.11h-.51c-.13,0-.22-.03-.27-.1-.05-.07-.08-.14-.08-.21v-7.22c0-.07.03-.14.08-.21.05-.07.14-.1.27-.1h.51c.14,0,.23.04.27.11.04.08.07.14.07.2v7.22Z"/>
      <path class="cls-2" d="M189.17,101.64v-4.25c0-.08.03-.15.08-.22.05-.07.14-.1.27-.1h.49c.12,0,.22.03.28.09.06.06.09.14.09.22v.51c.17-.14.35-.28.54-.41.19-.14.4-.26.62-.38.22-.11.44-.21.67-.28.23-.07.46-.11.69-.11.44,0,.8.08,1.11.23.3.16.55.36.73.6.19.25.33.52.41.83s.12.61.12.91v.99c0,.27-.04.52-.12.76-.08.24-.2.44-.37.62-.17.18-.38.32-.63.42-.25.1-.55.15-.9.15h-2.96c-.07.24-.17.47-.31.69-.14.22-.32.42-.53.58-.21.17-.45.3-.72.4s-.56.15-.87.15c-.39,0-.74-.07-1.05-.21-.31-.14-.57-.32-.79-.55-.22-.23-.38-.49-.5-.78-.12-.29-.17-.59-.17-.89v-2.44c0-.06.02-.13.07-.21.04-.08.14-.12.28-.12h.5c.14,0,.24.04.28.12.04.08.06.15.06.21v2.44c0,.17.03.33.1.49.06.16.16.3.27.42.12.12.26.22.42.29.16.07.34.11.53.11s.37-.04.53-.11c.16-.07.3-.17.41-.29.11-.12.2-.26.27-.41.07-.16.1-.32.1-.49M193.26,101.13c.31,0,.53-.07.65-.2.12-.13.18-.34.18-.63v-.99c0-.2-.02-.38-.06-.55-.04-.17-.11-.33-.21-.46-.1-.13-.22-.24-.37-.32-.15-.08-.33-.12-.55-.12-.2,0-.41.05-.65.16-.24.11-.47.24-.7.39-.23.16-.45.33-.65.51-.2.18-.37.36-.51.52v1.69h2.88ZM192.22,96.07c-.12,0-.21-.03-.27-.1-.05-.07-.08-.14-.08-.21v-.58c0-.07.03-.14.08-.21.06-.07.14-.1.27-.1h.52c.12,0,.21.03.27.09.06.06.09.14.09.22v.58c0,.09-.03.16-.09.22-.06.06-.15.09-.27.09h-.52Z"/>
      <path class="cls-2" d="M198.35,96.93c.13,0,.22.04.28.11.06.07.08.15.08.22v3.87h1.62v1.12h-1.62v.21c0,.27-.04.52-.12.76-.08.24-.21.44-.38.62-.17.18-.38.32-.63.42s-.55.15-.89.15h-.53c-.13,0-.22-.03-.27-.1-.05-.07-.08-.14-.08-.21v-.49c0-.08.03-.15.08-.22.05-.07.14-.1.27-.1h.53c.31,0,.53-.07.64-.2.12-.13.17-.34.17-.63v-5.2c0-.07.03-.15.09-.22.06-.07.15-.11.27-.11h.49Z"/>
      <path class="cls-2" d="M207.51,101.13v1.12h-7.7v-1.12h2.36l-.93-1.92s-.03-.09-.04-.16v-.12s0-.08.02-.14c0-.03,0-.07.02-.11.07-.28.18-.53.35-.77.17-.24.37-.45.6-.62.23-.17.48-.31.76-.41.27-.1.55-.15.83-.15.34,0,.66.06.97.19.3.12.57.29.81.5.24.21.42.44.57.71.14.27.22.54.24.83v.04c0,.09-.01.16-.04.23l-.93,1.92h2.09ZM202.43,98.9l1.06,2.22h.62l1.06-2.23c-.03-.14-.09-.28-.17-.4-.08-.12-.19-.23-.32-.33-.13-.09-.27-.17-.42-.22-.15-.05-.31-.08-.47-.08s-.3.03-.45.09c-.15.06-.28.14-.4.23-.12.1-.22.21-.32.33-.09.12-.15.25-.19.39"/>
      <path class="cls-2" d="M213.84,99.1v.77c0,.29-.06.58-.17.87-.12.29-.28.54-.5.76-.21.22-.47.4-.78.54-.31.14-.65.21-1.02.21h-4.19v-1.12h1.74v-2.03c0-.33.07-.65.2-.94.13-.29.31-.54.53-.75.22-.21.49-.38.78-.5.3-.12.61-.19.94-.19.38,0,.72.07,1.02.21.3.14.56.32.78.54.21.22.38.47.5.76.12.28.17.57.17.87M211.37,101.13c.18,0,.35-.03.5-.1.15-.07.29-.16.4-.28.11-.12.2-.25.27-.4.07-.15.1-.31.1-.47v-.77c0-.16-.03-.31-.1-.46-.07-.15-.15-.28-.27-.4-.11-.12-.25-.21-.4-.28-.15-.07-.32-.1-.5-.1s-.34.03-.49.1c-.15.07-.29.16-.4.28-.11.12-.2.25-.26.4-.06.15-.09.3-.09.46v2.03h1.24Z"/>
    </g>
  </g>
</svg>