<?xml version="1.0" encoding="UTF-8"?>
<svg id="Layer_2" xmlns="http://www.w3.org/2000/svg" xmlns:xlink="http://www.w3.org/1999/xlink" viewBox="0 0 422.67 66.67">
  <defs>
    <style>
      .cls-1 {
        fill: none;
      }

      .cls-2 {
        mask: url(#mask);
      }

      .cls-3 {
        fill: #c0d849;
      }

      .cls-4 {
        fill: url(#linear-gradient-5);
      }

      .cls-5 {
        fill: url(#linear-gradient-6);
      }

      .cls-6 {
        fill: url(#linear-gradient-4);
      }

      .cls-7 {
        fill: url(#linear-gradient-3);
      }

      .cls-8 {
        fill: url(#linear-gradient-2);
      }

      .cls-9 {
        fill: #174071;
      }

      .cls-10 {
        fill: #69be56;
      }

      .cls-11 {
        fill: #2885c7;
      }

      .cls-12 {
        fill: url(#radial-gradient);
      }

      .cls-13 {
        fill: url(#linear-gradient);
      }

      .cls-14 {
        isolation: isolate;
      }

      .cls-15 {
        clip-path: url(#clippath-1);
      }

      .cls-16 {
        clip-path: url(#clippath-3);
      }

      .cls-17 {
        clip-path: url(#clippath-4);
      }

      .cls-18 {
        clip-path: url(#clippath-2);
      }

      .cls-19 {
        clip-path: url(#clippath-7);
      }

      .cls-20 {
        clip-path: url(#clippath-6);
      }

      .cls-21 {
        clip-path: url(#clippath-8);
      }

      .cls-22 {
        clip-path: url(#clippath-5);
      }

      .cls-23 {
        fill: #fff;
      }

      .cls-24 {
        fill: #0fbcbe;
      }

      .cls-25 {
        fill: #3f8e9c;
      }

      .cls-26 {
        clip-path: url(#clippath);
      }

      .cls-27 {
        fill: #8497a2;
      }
    </style>
    <clipPath id="clippath">
      <polygon class="cls-1" points="319.2 7.56 319.2 46.07 319.2 46.07 326.19 43.07 326.19 4.56 326.19 4.56 319.2 7.56"/>
    </clipPath>
    <linearGradient id="linear-gradient" x1="-1419.77" y1="9130.53" x2="-1418.77" y2="9130.53" gradientTransform="translate(70961.06 -454386.35) scale(49.77)" gradientUnits="userSpaceOnUse">
      <stop offset="0" stop-color="#d19e43"/>
      <stop offset=".14" stop-color="#d19e43"/>
      <stop offset=".43" stop-color="#204f4d"/>
      <stop offset=".8" stop-color="#41918f"/>
      <stop offset="1" stop-color="#41918f"/>
    </linearGradient>
    <clipPath id="clippath-1">
      <path class="cls-1" d="M312.79,25.85s-.05.02-.07.03c-4.46,2.03-7.92,5.02-10,8.64-1.99,3.47-2.64,7.43-1.83,11.16.8,3.72,3.03,7.05,6.27,9.37,3.38,2.43,7.76,3.71,12.65,3.71h18.54c1.93,0,3.5-1.57,3.5-3.5v-12.55h-6.99v9.05h-15.05c-6.35,0-11.09-2.97-12.09-7.57-1-4.61,2.08-9.29,7.86-11.93l2.42-1.03v-7.61l-5.21,2.23Z"/>
    </clipPath>
    <linearGradient id="linear-gradient-2" x1="-1419.77" y1="9130.53" x2="-1418.77" y2="9130.53" gradientTransform="translate(112485.81 -721483.51) scale(79.02)" gradientUnits="userSpaceOnUse">
      <stop offset="0" stop-color="#d19e43"/>
      <stop offset=".14" stop-color="#d19e43"/>
      <stop offset=".6" stop-color="#5c9477"/>
      <stop offset=".8" stop-color="#41918f"/>
      <stop offset="1" stop-color="#41918f"/>
    </linearGradient>
    <clipPath id="clippath-2">
      <polygon class="cls-1" points="319.2 23.11 319.2 30.71 351.46 16.89 351.46 9.28 319.2 23.11"/>
    </clipPath>
    <linearGradient id="linear-gradient-3" y1="9130.53" y2="9130.53" gradientTransform="translate(112474.36 -721504.78) scale(79.02)" xlink:href="#linear-gradient-2"/>
    <clipPath id="clippath-3">
      <polygon class="cls-1" points="319.2 23.11 319.2 30.72 351.46 16.89 351.46 9.28 319.2 23.11"/>
    </clipPath>
    <clipPath id="clippath-4">
      <rect class="cls-1" x="316.12" y="3.23" width="38.42" height="33.53" transform="translate(26 151.01) rotate(-26.37)"/>
    </clipPath>
    <linearGradient id="linear-gradient-4" x1="-1419.77" y1="9130.53" x2="-1418.77" y2="9130.53" gradientTransform="translate(49127.97 -313910.46) scale(34.38)" gradientUnits="userSpaceOnUse">
      <stop offset="0" stop-color="#231f20"/>
      <stop offset=".14" stop-color="#231f20"/>
      <stop offset=".43" stop-color="#d1d3d4"/>
      <stop offset=".67" stop-color="#fff"/>
      <stop offset="1" stop-color="#fff"/>
    </linearGradient>
    <mask id="mask" x="291.92" y="-23.18" width="86.81" height="86.36" maskUnits="userSpaceOnUse">
      <g>
        <rect x="310.67" y="-3.55" width="49.32" height="47.11"/>
        <g class="cls-14">
          <g class="cls-17">
            <rect class="cls-6" x="302.78" y="-12.05" width="65.11" height="64.11" transform="translate(26 151) rotate(-26.37)"/>
          </g>
        </g>
      </g>
    </mask>
    <clipPath id="clippath-5">
      <rect class="cls-1" x="310.67" y="-3.56" width="49.31" height="47.11"/>
    </clipPath>
    <clipPath id="clippath-6">
      <rect class="cls-1" x="316.12" y="3.23" width="38.42" height="33.53" transform="translate(26 151) rotate(-26.37)"/>
    </clipPath>
    <linearGradient id="linear-gradient-5" x1="-1419.77" y1="9130.53" x2="-1418.77" y2="9130.53" gradientTransform="translate(49130.62 -313910.01) scale(34.38)" gradientUnits="userSpaceOnUse">
      <stop offset="0" stop-color="#d19e43"/>
      <stop offset=".14" stop-color="#d19e43"/>
      <stop offset=".43" stop-color="#5c9480"/>
      <stop offset=".67" stop-color="#255957"/>
      <stop offset="1" stop-color="#41918f"/>
    </linearGradient>
    <clipPath id="clippath-7">
      <polygon class="cls-1" points="334.85 5.51 334.85 30.49 334.85 30.49 341.85 30.49 341.85 30.49 341.85 2.51 341.85 2.51 334.85 5.51"/>
    </clipPath>
    <linearGradient id="linear-gradient-6" x1="-1419.77" y1="9130.53" x2="-1418.77" y2="9130.53" gradientTransform="translate(62122.66 -397454.29) scale(43.53)" gradientUnits="userSpaceOnUse">
      <stop offset="0" stop-color="#d19e43"/>
      <stop offset=".14" stop-color="#d19e43"/>
      <stop offset=".67" stop-color="#41918f"/>
      <stop offset="1" stop-color="#41918f"/>
    </linearGradient>
    <clipPath id="clippath-8">
      <path class="cls-1" d="M333.82,36.66c0,2.5,2.03,4.53,4.53,4.53s4.53-2.03,4.53-4.53-2.03-4.54-4.53-4.54-4.53,2.03-4.53,4.54"/>
    </clipPath>
    <radialGradient id="radial-gradient" cx="-1419.77" cy="9130.53" fx="-1419.77" fy="9130.53" r="1" gradientTransform="translate(163062.25 25330.98) rotate(90) scale(17.82)" gradientUnits="userSpaceOnUse">
      <stop offset="0" stop-color="#fff"/>
      <stop offset=".36" stop-color="#fff"/>
      <stop offset=".41" stop-color="#d2d2d2"/>
      <stop offset=".53" stop-color="#797979"/>
      <stop offset=".62" stop-color="#373737"/>
      <stop offset=".69" stop-color="#0f0f0f"/>
      <stop offset=".73" stop-color="#000"/>
      <stop offset="1" stop-color="#000"/>
    </radialGradient>
  </defs>
  <g id="Layer_1-2" data-name="Layer_1">
    <g>
      <g>
        <path class="cls-23" d="M388.72,56.5c.04.92.45,1.09.93,1.09.25,0,.46.12.46.38,0,.17-.08.39-.46.39-.53,0-1.07-.14-1.33-.77-.28.18-.76.26-1.05.26-.77,0-1.29-.42-1.29-1.07,0-.53.29-.99.83-1.42.31-.25.84-.53,1.26-.74l-.03-.68.58-.06.1,2.62ZM388.09,55.25c-1.09.46-1.54.93-1.54,1.34,0,.35.33.51.81.51.25,0,.58-.06.81-.16,0-.06,0-.12,0-.19l-.07-1.5ZM387.25,52.66c0-.27.19-.45.43-.45s.43.18.43.45-.18.44-.43.44-.43-.16-.43-.44M388.4,52.66c0-.27.17-.45.42-.45.26,0,.43.18.43.45s-.17.44-.43.44c-.25,0-.42-.16-.42-.44"/>
        <path class="cls-23" d="M389.23,57.96c0-.15.09-.37.42-.37h.17c.61,0,.99-.06,1.2-.2,0-.05,0-.11,0-.16-.03-.73-.34-1.42-.65-1.97l.62-.25c.26.48.6,1.47.6,2.27,0,.22-.02.47-.09.65-.24.2-.59.42-1.72.42h-.13c-.34,0-.42-.22-.42-.4M390.6,60.03c0,.27-.19.45-.43.45s-.43-.17-.43-.45.19-.45.43-.45.43.18.43.45M391.73,60.03c0,.27-.18.45-.43.45s-.41-.17-.41-.45.16-.45.41-.45.43.18.43.45"/>
        <path class="cls-23" d="M394.8,55.96c.18.36.34.72.47,1.05.22.45.49.58.87.58.25,0,.45.12.45.38,0,.17-.08.39-.45.39-.15,0-.42-.02-.6-.14,0,.13-.02.29-.03.39-.22,1.24-1.22,1.87-2.01,1.87-.42,0-.92-.14-1.23-.46l.08-.55c.36.22.75.29,1.14.29.7,0,1.47-.62,1.51-1.59-.04-.42-.5-1.33-.81-1.89l.62-.31Z"/>
        <path class="cls-23" d="M398.38,57.59c.35,0,.42.21.42.39,0,.16-.09.38-.42.38h-2.25c-.35,0-.42-.21-.42-.4,0-.15.09-.37.42-.37h2.25Z"/>
        <path class="cls-23" d="M400.63,57.59c.35,0,.42.21.42.39,0,.16-.09.38-.42.38h-2.25c-.35,0-.42-.21-.42-.4,0-.15.09-.37.42-.37h2.25Z"/>
        <path class="cls-23" d="M402.87,57.59c.35,0,.42.21.42.39,0,.16-.09.38-.42.38h-2.25c-.35,0-.42-.21-.42-.4,0-.15.09-.37.42-.37h2.25Z"/>
        <path class="cls-23" d="M405.12,57.59c.35,0,.42.21.42.39,0,.16-.09.38-.42.38h-2.25c-.35,0-.42-.21-.42-.4,0-.15.09-.37.42-.37h2.25Z"/>
        <path class="cls-23" d="M407.37,57.59c.35,0,.42.21.42.39,0,.16-.09.38-.42.38h-2.25c-.35,0-.42-.21-.42-.4,0-.15.09-.37.42-.37h2.25Z"/>
        <path class="cls-23" d="M409.62,57.59c.35,0,.42.21.42.39,0,.16-.09.38-.42.38h-2.25c-.35,0-.42-.21-.42-.4,0-.15.09-.37.42-.37h2.25Z"/>
        <path class="cls-23" d="M409.2,57.98c0-.21.13-.39.43-.39.82,0,1.09-.46,1.25-1.18l.54-.03c-.03.11-.1.35-.12.55-.03.3.03.69.46.69.4,0,.72-.19.88-1.1l.53-.02c-.03.13-.06.29-.07.49-.02.46.15.63.44.63.59,0,.76-.92.83-1.43l.51-.04c-.02.14-.03.2-.04.38-.03.62.15,1.06.98,1.07.25,0,.45.12.45.38,0,.17-.08.39-.45.39-.72,0-1.12-.25-1.31-.76-.2.49-.59.76-1.02.76-.53,0-.71-.32-.8-.6-.21.39-.54.6-1.02.6-.51,0-.73-.31-.82-.63-.2.35-.68.63-1.24.63-.33,0-.43-.19-.43-.38M411.68,54.61c0-.25.19-.44.42-.44.25,0,.43.2.43.44,0,.28-.18.46-.43.46s-.42-.17-.42-.46M412.27,53.59c0-.26.16-.45.41-.45.26,0,.43.19.43.45,0,.28-.17.45-.43.45-.25,0-.41-.16-.41-.45M412.81,54.61c0-.25.17-.44.42-.44s.42.2.42.44c0,.28-.16.46-.42.46s-.42-.17-.42-.46"/>
        <path class="cls-23" d="M415.36,57.97c0-.17.12-.37.44-.37.93,0,1.12-.56,1.2-1.3l.5-.04c0,.07-.02.19-.02.29,0,.53.17,1.04.99,1.05.25,0,.45.11.45.37,0,.17-.08.39-.45.39-.74,0-1.14-.28-1.31-.85-.22.6-.7.85-1.38.85-.34,0-.43-.2-.43-.39M417.62,60.04c0,.29-.18.47-.44.47s-.44-.18-.44-.47c0-.27.19-.46.44-.46s.44.19.44.46"/>
        <path class="cls-23" d="M418.05,57.96c0-.14.11-.37.43-.37.62,0,1.03-.31.99-1.1l-.2-4.24.64-.05.2,4.3c.07,1.29-.57,1.86-1.62,1.86-.34,0-.43-.21-.43-.4"/>
        <polygon class="cls-23" points="421.48 52.25 422.12 52.2 422.35 58.36 421.72 58.36 421.48 52.25"/>
      </g>
      <g>
        <path class="cls-23" d="M391.38,46.48l.46.09c-.06.24-.09.46-.09.71,0,1.16.82,1.75,2.47,1.75,1.4,0,2.39-.19,2.99-.43,0-.07,0-.11,0-.17-.02-.58-.22-1.26-.6-1.96l.61-.17c.28.51.58,1.32.58,2.2,0,.26-.04.47-.09.63-1.05.46-2.21.66-3.54.66-2.18,0-2.98-.9-2.98-2.26,0-.38.07-.76.19-1.05M393.42,45.58c0-.27.19-.45.43-.45s.43.18.43.45-.18.45-.43.45-.43-.17-.43-.45M394.58,45.58c0-.27.17-.45.42-.45.26,0,.43.18.43.45s-.17.45-.43.45c-.25,0-.42-.17-.42-.45"/>
        <polygon class="cls-23" points="398.83 43.5 399.46 43.45 399.7 49.61 399.06 49.61 398.83 43.5"/>
        <path class="cls-23" d="M400.36,50.77c.36,0,.97-.19,1.38-.95.13-.25.2-.57.2-.69,0-.31-.08-1.07-.8-2.5l.63-.27c.36.69.74,1.85.74,2.66,0,.27-.08.68-.19.95-.38.98-1.17,1.51-1.91,1.51-.53,0-.96-.21-1.15-.42l.11-.53c.36.2.65.24.98.24"/>
        <path class="cls-23" d="M403.87,48.19c.12.42.34.63.98.63.45,0,.92-.12,1.19-.36.13-.12.21-.3.2-.36-.07-.29-.36-1.43-.7-2.57l.62-.21c.29,1.12.42,1.71.69,2.66.19.7.48.85,1,.85.25,0,.45.12.45.38,0,.17-.08.39-.45.39-.84,0-1.14-.3-1.4-.87-.14.48-.83.87-1.65.87-.93,0-1.37-.38-1.42-1.32l.48-.09Z"/>
        <path class="cls-23" d="M410.1,48.83c.35,0,.42.21.42.39,0,.16-.09.38-.42.38h-2.25c-.35,0-.42-.21-.42-.4,0-.15.09-.37.42-.37h2.25Z"/>
        <path class="cls-23" d="M412.35,48.83c.35,0,.42.21.42.39,0,.16-.09.38-.42.38h-2.25c-.35,0-.42-.21-.42-.4,0-.15.09-.37.42-.37h2.25Z"/>
        <path class="cls-23" d="M414.6,48.83c.35,0,.42.21.42.39,0,.16-.09.38-.42.38h-2.25c-.35,0-.42-.21-.42-.4,0-.15.09-.37.42-.37h2.25Z"/>
        <path class="cls-23" d="M418.48,48.83c.26,0,.46.12.46.38,0,.17-.08.39-.46.39h-.29c-.57,0-1.15-.12-1.65-.33-.48.21-1.04.33-1.61.33h-.33c-.28,0-.43-.14-.43-.39,0-.13.09-.38.43-.38h.28c.27,0,.58,0,.87-.05-.35-.32-.56-.71-.56-1.18,0-.91.81-1.63,1.46-1.63.56,0,1.22.64,1.22,1.58,0,.48-.21.88-.55,1.21.3.04.62.07.93.07h.23ZM415.37,44.48c0-.27.19-.45.43-.45s.43.18.43.45-.18.45-.43.45-.43-.17-.43-.45M416.59,48.58c.43-.18.74-.48.74-.98s-.38-.95-.76-.95c-.5,0-.84.48-.84.92,0,.48.35.81.86,1.01M416.52,44.48c0-.27.17-.45.42-.45.26,0,.43.18.43.45s-.17.45-.43.45c-.25,0-.42-.17-.42-.45"/>
        <path class="cls-23" d="M418.05,49.21c0-.14.11-.37.43-.37.62,0,1.03-.31.99-1.09l-.2-4.24.64-.05.2,4.3c.07,1.29-.57,1.86-1.62,1.86-.34,0-.43-.21-.43-.4"/>
        <polygon class="cls-23" points="421.48 43.5 422.12 43.45 422.35 49.61 421.72 49.61 421.48 43.5"/>
        <path class="cls-23" d="M380.86,35.62c.66.48,1.05.89,1.36,1.28.3.42.47.87.47,1.32,0,1.1-.84,1.63-1.56,1.63-.9,0-1.43-.75-1.43-1.56,0-.75.42-1.39.95-2.02-.05-.04-.11-.08-.17-.13l.39-.52ZM379.94,34.45c0-.27.19-.45.43-.45s.43.18.43.45-.18.45-.43.45-.43-.17-.43-.45M382.14,38.18c0-.52-.35-.99-1.06-1.58-.46.46-.85,1.04-.85,1.51,0,.58.45.94.96.94.66,0,.95-.51.95-.87M381.09,34.45c0-.27.17-.45.42-.45.26,0,.43.18.43.45s-.17.45-.43.45c-.25,0-.42-.17-.42-.45"/>
        <path class="cls-23" d="M382.9,40.93c.36,0,.97-.19,1.38-.95.13-.25.2-.57.2-.69,0-.31-.08-1.07-.8-2.5l.63-.27c.36.7.74,1.85.74,2.66,0,.27-.08.68-.19.95-.38.98-1.17,1.51-1.91,1.51-.53,0-.96-.21-1.15-.43l.11-.52c.36.2.65.24.98.24"/>
        <path class="cls-23" d="M385.85,38.83c.27.1.75.17,1.32.17.64,0,1.12-.15,1.35-.32,0-.6-.44-1.66-1.89-2.5l.54-.46c1.08.61,1.94,1.75,1.94,2.93,0,.13,0,.38-.05.49-.34.35-.98.63-1.97.63-.42,0-.83-.05-1.12-.18l-.12-.76Z"/>
        <path class="cls-23" d="M390.01,33.66l.64-.04.16,4.19c.03.91.39,1.16.97,1.2.25,0,.45.12.45.38,0,.17-.08.39-.45.39-.99,0-1.54-.46-1.59-1.76l-.17-4.36Z"/>
        <path class="cls-23" d="M394.02,39c.35,0,.42.21.42.39,0,.16-.09.38-.42.38h-2.25c-.35,0-.42-.21-.42-.4,0-.15.09-.37.42-.37h2.25Z"/>
        <path class="cls-23" d="M396.27,39c.35,0,.42.21.42.39,0,.16-.09.38-.42.38h-2.25c-.35,0-.42-.21-.42-.4,0-.15.09-.37.42-.37h2.25Z"/>
        <path class="cls-23" d="M398.52,39c.35,0,.42.21.42.39,0,.16-.09.38-.42.38h-2.25c-.35,0-.42-.21-.42-.4,0-.15.09-.37.42-.37h2.25Z"/>
        <path class="cls-23" d="M400.77,39c.35,0,.42.21.42.39,0,.16-.09.38-.42.38h-2.25c-.35,0-.42-.21-.42-.4,0-.15.09-.37.42-.37h2.25Z"/>
        <path class="cls-23" d="M403.02,39c.35,0,.42.21.42.39,0,.16-.09.38-.42.38h-2.25c-.35,0-.42-.21-.42-.4,0-.15.09-.37.42-.37h2.25Z"/>
        <path class="cls-23" d="M405.27,39c.35,0,.42.21.42.39,0,.16-.09.38-.42.38h-2.25c-.35,0-.42-.21-.42-.4,0-.15.09-.37.42-.37h2.25Z"/>
        <path class="cls-23" d="M407.51,39c.35,0,.42.21.42.39,0,.16-.09.38-.42.38h-2.25c-.35,0-.42-.21-.42-.4,0-.15.09-.37.42-.37h2.25Z"/>
        <path class="cls-23" d="M409.76,39c.35,0,.42.21.42.39,0,.16-.09.38-.42.38h-2.25c-.35,0-.42-.21-.42-.4,0-.15.09-.37.42-.37h2.25Z"/>
        <path class="cls-23" d="M412.01,39c.35,0,.42.21.42.39,0,.16-.09.38-.42.38h-2.25c-.35,0-.42-.21-.42-.4,0-.15.09-.37.42-.37h2.25Z"/>
        <path class="cls-23" d="M414.26,39c.35,0,.42.21.42.39,0,.16-.09.38-.42.38h-2.25c-.35,0-.42-.21-.42-.4,0-.15.09-.37.42-.37h2.25Z"/>
        <path class="cls-23" d="M416.51,39c.35,0,.42.21.42.39,0,.16-.09.38-.42.38h-2.25c-.35,0-.42-.21-.42-.4,0-.15.09-.37.42-.37h2.25Z"/>
        <path class="cls-23" d="M416.05,39.38c0-.17.12-.37.44-.37.93,0,1.12-.56,1.2-1.3l.5-.04c0,.07-.02.19-.02.29,0,.53.17,1.04.99,1.05.25,0,.45.11.45.37,0,.17-.08.39-.45.39-.74,0-1.14-.28-1.31-.85-.22.6-.7.85-1.38.85-.34,0-.43-.2-.43-.39M418.31,41.45c0,.29-.18.47-.44.47s-.44-.18-.44-.47c0-.27.19-.46.44-.46s.44.19.44.46"/>
        <path class="cls-23" d="M419.17,39.77c-.26,0-.46-.12-.46-.39,0-.18.1-.38.47-.38.42,0,.59-.25.76-.75.36-1.02.7-1.43,1.34-1.43.87,0,1.38,1.08,1.38,1.87,0,.64-.42,1.08-.97,1.08-.47,0-.97-.19-1.54-.63-.22.44-.47.63-.97.63h-.02ZM422.13,38.67c0-.51-.42-1.19-.88-1.19-.33,0-.57.19-.81.97.31.29.85.57,1.3.57.22,0,.4-.08.4-.36"/>
      </g>
      <g class="cls-26">
        <rect class="cls-13" x="301.66" y="17.91" width="42.08" height="14.8" transform="translate(236.17 337.22) rotate(-78.98)"/>
      </g>
      <g class="cls-15">
        <rect class="cls-8" x="293.94" y="13.91" width="54.04" height="54.56" transform="translate(76.19 252.86) rotate(-48.17)"/>
      </g>
      <g class="cls-18">
        <rect class="cls-7" x="316.58" y=".83" width="37.49" height="38.33" transform="translate(96.77 256.5) rotate(-48.17)"/>
      </g>
      <g class="cls-16">
        <g class="cls-2">
          <g class="cls-22">
            <g class="cls-20">
              <rect class="cls-4" x="302.77" y="-12.05" width="65.11" height="64.11" transform="translate(26 151.01) rotate(-26.37)"/>
            </g>
          </g>
        </g>
      </g>
      <g class="cls-19">
        <rect class="cls-5" x="324.28" y="7.1" width="28.15" height="18.8" transform="translate(171.9 311.54) rotate(-63.36)"/>
      </g>
      <g class="cls-21">
        <rect class="cls-12" x="332.76" y="31.07" width="11.17" height="11.17" transform="translate(211.92 352.64) rotate(-74.38)"/>
      </g>
      <g>
        <path class="cls-23" d="M10.97,16.9h-1.01v-8.9h1.01v8.9ZM19.19,14.49v.03c0,1.52-1.27,2.52-3.04,2.52-1.41,0-2.57-.47-3.64-1.42l.62-.74c.93.84,1.82,1.26,3.05,1.26s1.98-.64,1.98-1.51v-.02c0-.83-.44-1.3-2.31-1.69-2.05-.45-2.99-1.11-2.99-2.57v-.02c0-1.4,1.23-2.43,2.93-2.43,1.3,0,2.23.37,3.13,1.09l-.59.77c-.83-.67-1.65-.97-2.57-.97-1.16,0-1.9.64-1.9,1.44v.02c0,.84.46,1.31,2.42,1.73,1.98.43,2.9,1.16,2.9,2.52M28.14,7.85c-2.71,0-4.55,2.15-4.55,4.6v.03c0,2.46,1.82,4.58,4.53,4.58s4.55-2.15,4.55-4.61v-.02c0-2.45-1.82-4.58-4.53-4.58M31.62,12.48c0,2.02-1.45,3.65-3.48,3.65s-3.51-1.65-3.51-3.68v-.02c0-2.02,1.45-3.65,3.48-3.65s3.51,1.65,3.51,3.68v.03ZM20.85,8h1.01v8.9h-1.01v-8.9ZM3.88,16.97L.05,8h1.12l.55,1.33,2.62,6.34.25.61-.1-.98,3.03-7.3h1.08l-3.83,8.97h-.89ZM40.86,8h.98v8.9h-.8l-6.31-8.01.56,1.3v6.71h-.98v-8.9h.94l6.02,7.66-.41-1.09v-6.57Z"/>
        <path class="cls-23" d="M69.01,17.85h.94v.94h-.94v-.94ZM70.89,17.85h.94v.94h-.94v-.94ZM51.48,7.07h-.94v-.94h.94v.94ZM74.54,13.66c.36.26.77.44,1.24.57.47.12.97.18,1.5.18h.25l.32-.67v.94c0,.49-.14.85-.42,1.06-.28.21-.68.32-1.19.32-.29,0-.55-.03-.78-.08-.23-.05-.5-.15-.8-.28l-.29.91c.36.13.68.23.96.3.28.07.56.1.84.1.92,0,1.59-.22,2-.65.42-.44.62-1.02.62-1.76v-6.57h-1.51c-.58,0-1.11.08-1.59.25s-.89.39-1.23.68c-.34.29-.61.63-.8,1.03-.19.4-.28.83-.28,1.29,0,.56.1,1.03.31,1.43.21.4.49.72.85.98M74.54,10.32c.15-.28.34-.52.58-.72.24-.2.51-.36.82-.47.3-.11.61-.16.92-.16h0s1.52,0,1.52,0l-.54.27v4.23h-.95c-.35,0-.69-.05-1-.15-.31-.1-.58-.24-.82-.43-.23-.19-.42-.42-.55-.7-.13-.27-.2-.59-.2-.94s.07-.65.22-.93M53.37,7.07h-.94v-.94h.94v.94ZM81.17,17c-.25,0-.51-.04-.77-.11l.25-.91c.11.03.2.05.26.06.06,0,.14.01.22.01.18,0,.33-.03.44-.08s.2-.13.27-.25.11-.26.14-.45c.03-.18.04-.41.04-.68v-6.6h.94v6.6c0,.37-.03.7-.09,1-.06.29-.16.55-.3.75-.14.21-.33.37-.56.48-.23.11-.52.17-.85.17M78.78,7.07h-2.06v-.77c0-.41.1-.72.29-.91.19-.19.47-.28.83-.28h.67v.66h-.65c-.15,0-.25.03-.29.08-.05.06-.08.16-.08.28v.22h1.29v.73ZM50.8,16.87h1.96v-.71s.04.07.06.1c.14.21.33.37.56.48.23.11.52.17.85.17h17.61v-8.89h-.94v7.95h-16.63c-.18,0-.33-.03-.44-.08-.11-.05-.2-.13-.27-.25-.07-.12-.11-.26-.14-.45-.03-.18-.04-.41-.04-.68v-6.5h-2.55c-2.61,0-4.38,2.07-4.38,4.43v.03c0,2.36,1.75,4.4,4.36,4.4M47.45,12.42c0-1.95,1.39-3.51,3.35-3.51h2.21l-.58.29v5.32c0,.37.03.7.09,1,.03.17.08.33.15.47h-1.84c-1.96,0-3.38-1.59-3.38-3.54v-.02Z"/>
        <polygon class="cls-23" points="3.54 61.49 2.85 61.49 1.5 59.72 .84 60.4 .84 61.49 .26 61.49 .26 57.72 .84 57.72 .84 59.75 2.76 57.72 3.45 57.72 1.89 59.33 3.54 61.49"/>
        <rect class="cls-23" x="4.32" y="57.72" width=".58" height="3.77"/>
        <polygon class="cls-23" points="9.32 57.72 9.32 61.49 8.83 61.49 6.62 58.64 6.62 61.49 6.05 61.49 6.05 57.72 6.6 57.72 8.76 60.5 8.76 57.72 9.32 57.72"/>
        <path class="cls-23" d="M13.79,59.43v1.55c-.32.26-.84.58-1.57.58-1.15,0-1.96-.8-1.96-1.94h0c0-1.11.86-1.96,1.95-1.96.59,0,1,.14,1.42.48l-.37.44c-.29-.24-.59-.4-1.08-.4-.72,0-1.31.64-1.31,1.43,0,.85.56,1.44,1.37,1.44.36,0,.7-.11.97-.3l.02-.02v-.8h-.99v-.49h1.55Z"/>
        <path class="cls-23" d="M16.23,57.72h-1.39v3.77h1.39c1.16,0,2.01-.79,2.01-1.89s-.84-1.89-2.01-1.89M16.23,60.97h-.82v-2.74h.82c.82,0,1.4.56,1.4,1.37s-.58,1.37-1.4,1.37"/>
        <path class="cls-23" d="M20.96,57.65c-1.13,0-1.98.84-1.98,1.95h0c0,1.12.85,1.95,1.97,1.95s1.98-.84,1.98-1.95-.85-1.95-1.97-1.95M22.32,59.62c0,.81-.59,1.42-1.36,1.42s-1.37-.63-1.37-1.43.58-1.43,1.36-1.43,1.37.63,1.37,1.43h0Z"/>
        <polygon class="cls-23" points="27.59 57.72 27.59 61.49 27.01 61.49 27.01 58.6 25.72 60.52 24.45 58.61 24.45 61.49 23.88 61.49 23.88 57.72 24.53 57.72 25.73 59.6 26.94 57.72 27.59 57.72"/>
        <path class="cls-23" d="M32.42,57.65c-1.13,0-1.98.84-1.98,1.95h0c0,1.12.85,1.95,1.97,1.95s1.98-.84,1.98-1.95-.85-1.95-1.97-1.95M33.78,59.62c0,.81-.59,1.42-1.36,1.42s-1.37-.63-1.37-1.43.58-1.43,1.36-1.43,1.37.63,1.37,1.43h0Z"/>
        <polygon class="cls-23" points="35.92 58.24 35.92 59.4 37.88 59.4 37.88 59.92 35.92 59.92 35.92 61.49 35.34 61.49 35.34 57.72 38.13 57.72 38.13 58.24 35.92 58.24"/>
        <path class="cls-23" d="M43.65,60.44c0,.67-.52,1.11-1.33,1.11-.57,0-1.11-.2-1.54-.58l.34-.41c.4.33.78.48,1.22.48s.74-.21.74-.55-.21-.48-.92-.64c-.81-.19-1.25-.43-1.25-1.12,0-.63.52-1.07,1.27-1.07.52,0,.94.14,1.34.44l-.31.43c-.35-.25-.69-.38-1.04-.38-.4,0-.68.21-.68.52,0,.34.21.48.96.66.87.21,1.21.52,1.21,1.1"/>
        <path class="cls-23" d="M46.38,57.69h-.56l-1.66,3.8h.59l.4-.94h1.9l.4.94h.6l-1.66-3.8ZM45.35,60.06l.74-1.73.75,1.73h-1.49Z"/>
        <path class="cls-23" d="M51.79,57.72v2.15c0,1.08-.59,1.69-1.61,1.69s-1.6-.6-1.6-1.66v-2.18h.58v2.15c0,.74.38,1.16,1.03,1.16s1.03-.41,1.03-1.13v-2.18h.58Z"/>
        <path class="cls-23" d="M54.28,57.72h-1.39v3.77h1.39c1.16,0,2.01-.79,2.01-1.89s-.84-1.89-2.01-1.89M54.28,60.97h-.82v-2.74h.82c.82,0,1.4.56,1.4,1.37s-.57,1.37-1.4,1.37"/>
        <rect class="cls-23" x="57.26" y="57.72" width=".58" height="3.77"/>
        <path class="cls-23" d="M62.93,57.69h-.56l-1.66,3.8h.59l.4-.94h1.9l.39.94h.61l-1.66-3.8ZM61.89,60.06l.74-1.73.75,1.73h-1.49Z"/>
        <path class="cls-23" d="M67.47,60.05l.07-.02c.57-.16.89-.56.89-1.12,0-.33-.11-.61-.31-.81-.25-.24-.62-.37-1.08-.37h-1.68v3.77h.58v-1.35h.92l.03.02.94,1.33h.68l-1.03-1.45ZM65.94,59.64v-1.4h1.04c.54,0,.86.25.86.69s-.33.71-.85.71h-1.05Z"/>
        <path class="cls-23" d="M71.4,57.69h-.56l-1.66,3.8h.58l.4-.94h1.9l.39.94h.61l-1.66-3.8ZM70.37,60.06l.74-1.73.75,1.73h-1.49Z"/>
        <path class="cls-23" d="M76.23,59.58l-.11-.04.11-.06c.36-.18.53-.45.53-.82,0-.25-.08-.45-.25-.62-.21-.21-.55-.33-.98-.33h-1.69v3.77h1.74c.87,0,1.38-.38,1.38-1.01,0-.45-.23-.73-.73-.9M74.4,58.22h1.03c.46,0,.73.2.73.54,0,.38-.28.59-.78.59h-.98v-1.13ZM75.58,60.99h-1.18v-1.17h1.13c.74,0,.85.36.85.57,0,.38-.29.59-.8.59"/>
        <rect class="cls-23" x="77.91" y="57.72" width=".58" height="3.77"/>
        <path class="cls-23" d="M81.49,57.69h-.56l-1.66,3.8h.59l.4-.94h1.9l.4.94h.6l-1.66-3.8ZM80.46,60.06l.74-1.73.75,1.73h-1.49Z"/>
        <path class="cls-23" d="M59.99,49.23h-.56v.56h.56v-.56ZM53.2,54.1h.54v-4.87h-.54v4.87ZM5.79,50.42h-.54v3.14h-2.16v-3.14h-.85c-.34,0-.65.05-.92.14s-.51.22-.7.39c-.2.17-.35.36-.45.59-.11.23-.16.47-.16.73,0,.32.06.6.18.83.12.23.29.42.49.57.2.15.44.26.71.33.27.07.56.11.85.11h3.56v-3.68ZM2.55,53.56h-.54c-.2,0-.39-.03-.57-.09s-.33-.14-.47-.25c-.13-.11-.24-.25-.32-.41-.08-.16-.11-.34-.11-.55s.04-.37.13-.53c.08-.16.19-.3.33-.41.14-.12.3-.2.47-.26.18-.06.36-.09.54-.09h.54v2.6ZM4.29,55.3h.56v-.56h-.56v.56ZM3.09,49.23h-.56v.56h.56v-.56ZM36.23,49.23h-.56v.56h.56v-.56ZM5.24,55.3h.56v-.56h-.56v.56ZM37.19,49.23h-.56v.56h.56v-.56ZM59.05,49.23h-.56v.56h.56v-.56ZM2.14,49.23h-.56v.56h.56v-.56ZM38.99,55.3h.56v-.56h-.56v.56ZM42.48,50.42h-.54v3.14h-2.05v-3.14h-.54v3.14h-2.16v-3.14h-.85c-.34,0-.65.05-.92.14s-.51.22-.71.39c-.19.17-.34.36-.45.59-.11.23-.16.47-.16.73,0,.32.06.6.18.83.12.23.29.42.49.57.2.15.44.26.71.33s.56.11.85.11h6.15v-3.68ZM36.64,53.56h-.54c-.2,0-.4-.03-.57-.09-.18-.06-.33-.14-.47-.25-.13-.11-.24-.25-.32-.41-.08-.16-.11-.34-.11-.55s.04-.37.12-.53.19-.3.33-.41c.14-.12.3-.2.47-.26.18-.06.36-.09.54-.09h.54v2.6ZM39.94,55.3h.56v-.56h-.56v.56ZM9.29,50.89c-.14-.16-.31-.28-.48-.36-.18-.08-.4-.12-.65-.12h-.4v.54h.47c.13,0,.26.03.37.08.12.06.21.13.29.22.08.09.13.2.16.31.03.11.04.25.04.41v1.57h-2.54v.54h3.09v-2.14c0-.21-.03-.41-.08-.6-.06-.19-.14-.34-.26-.47M51.08,53.56h-2.31l.95-2.27c-.15-.13-.3-.25-.46-.36-.16-.11-.33-.21-.5-.29-.17-.08-.35-.15-.52-.2-.18-.05-.35-.07-.52-.07s-.35.02-.53.07c-.18.05-.35.11-.53.19-.17.08-.34.18-.5.29-.16.11-.31.23-.45.36l.96,2.27h-2.02v-3.14h-.54v3.8c0,.15,0,.28-.02.39-.02.11-.04.19-.08.26-.04.07-.09.11-.16.14-.07.03-.15.04-.25.04-.05,0-.09,0-.13,0-.04,0-.09-.02-.15-.03l-.14.52c.15.04.3.06.44.06.19,0,.36-.03.49-.09.13-.06.24-.16.32-.27.08-.12.14-.26.17-.43.03-.17.05-.36.05-.57v-.12h6.98v-4.87h-.54v4.33ZM47.23,53.56l-.85-2.08c.21-.18.42-.3.64-.39.22-.08.45-.12.69-.12s.49.05.73.15c.24.1.44.22.61.36l-.85,2.08h-.97ZM41.93,55.3h.56v-.56h-.56v.56ZM82.39,54.1h.54v-4.87h-.54v4.87ZM80.27,53.56h-1.87c.11-.25.17-.52.17-.8s-.05-.54-.15-.78c-.1-.24-.24-.45-.42-.63-.18-.17-.39-.31-.63-.42-.24-.1-.5-.15-.78-.15s-.53.05-.76.16c-.23.1-.44.25-.61.42s-.31.39-.41.63c-.1.24-.15.5-.15.77,0,.14.02.28.05.42.03.13.07.26.12.38h-1.68c.11-.25.17-.52.17-.8s-.05-.54-.15-.78-.24-.45-.42-.63c-.18-.17-.39-.31-.63-.42-.24-.1-.5-.15-.78-.15s-.53.05-.76.16c-.23.1-.44.25-.61.42-.17.18-.31.39-.41.63-.1.24-.15.5-.15.77,0,.14.02.28.04.42.03.13.07.26.12.38h-1.72v-4.33h-.54v4.33h-1.73v-.83c0-.21-.03-.41-.08-.59-.05-.19-.14-.35-.26-.48-.14-.16-.3-.28-.48-.35-.18-.08-.4-.12-.67-.12h-2.4l1.02-1.96h-.59l-1.04,1.95c.02.12.05.22.09.31.04.09.09.17.16.24h2.77c.17,0,.32.03.44.08.12.05.22.12.3.21.08.09.13.2.16.31s.04.25.04.39v.83h-5.02v-3.14h-.85c-.34,0-.65.05-.92.14-.28.09-.51.22-.71.39-.19.17-.34.36-.45.59-.11.23-.16.47-.16.73,0,.32.06.6.18.83.12.23.29.42.49.57.2.15.44.26.71.33s.56.11.85.11h10.77c.18.19.39.34.63.45.24.11.51.17.79.17s.56-.05.81-.16c.25-.11.47-.26.65-.45h2.39c.18.19.39.34.63.45.24.11.51.17.79.17s.56-.05.81-.16c.25-.11.47-.26.65-.45h2.76v-4.87h-.54v4.33ZM59.46,53.56h-.54c-.2,0-.4-.03-.57-.09-.18-.06-.34-.14-.47-.25-.13-.11-.24-.25-.32-.41-.08-.16-.11-.34-.11-.55s.04-.37.12-.53c.08-.16.2-.3.33-.41.14-.12.3-.2.47-.26.18-.06.36-.09.54-.09h.54v2.6ZM72.65,53.32c-.08.17-.18.33-.31.45-.13.13-.28.23-.45.3-.17.07-.36.1-.57.1s-.38-.04-.55-.11c-.17-.08-.32-.18-.44-.31-.12-.13-.22-.28-.29-.45-.07-.17-.1-.35-.1-.55s.04-.38.1-.55c.07-.17.17-.33.29-.45.12-.13.27-.23.44-.31.17-.08.36-.12.56-.12s.4.04.57.11.33.17.45.3c.13.13.23.28.3.45.07.17.11.37.11.57s-.04.39-.11.57M77.92,53.32c-.07.17-.18.33-.3.45-.13.13-.28.23-.46.3-.17.07-.36.1-.57.1s-.38-.04-.55-.11c-.17-.08-.32-.18-.44-.31-.12-.13-.22-.28-.29-.45-.07-.17-.1-.35-.1-.55s.03-.38.1-.55c.07-.17.17-.33.29-.45.12-.13.27-.23.44-.31.17-.08.36-.12.56-.12s.4.04.57.11c.17.07.33.17.45.3.13.13.23.28.3.45.07.17.11.37.11.57s-.04.39-.11.57M28.16,53.56h-.89c-.32,0-.57-.05-.75-.14-.18-.09-.32-.23-.43-.41.03-.14.05-.31.05-.51v-1.75h-.54v1.84c0,.31-.08.56-.25.75s-.42.28-.76.28c-.16,0-.3-.03-.43-.08-.13-.05-.24-.12-.34-.2-.1-.09-.17-.19-.22-.3-.06-.12-.08-.24-.09-.37v-1.92h-.54v1.88c0,.17-.02.31-.07.42-.05.12-.12.21-.2.29-.09.08-.18.13-.29.16-.11.03-.22.05-.35.05h-1.05v-2.8h-.54v2.8h-2.85l.95-2.27c-.15-.13-.3-.25-.46-.36-.16-.11-.33-.21-.5-.29-.17-.08-.35-.15-.52-.2-.18-.05-.35-.07-.52-.07s-.35.02-.53.07c-.18.05-.35.11-.53.19-.18.08-.34.18-.5.29-.16.11-.31.23-.45.36l.96,2.27h-1.88v-3.14h-.87c-.33,0-.64.05-.92.14-.28.1-.51.23-.71.39-.2.17-.35.36-.46.59-.11.23-.16.48-.16.74,0,.32.06.6.18.82.12.23.28.42.49.56.21.15.44.25.72.33.27.07.56.11.86.11h.33v.16c0,.29-.08.49-.24.61-.16.12-.39.18-.68.18-.17,0-.32-.02-.45-.05-.13-.03-.29-.09-.46-.16l-.17.52c.21.08.39.13.55.17.16.04.32.06.48.06.53,0,.91-.12,1.15-.38.24-.25.36-.59.36-1.01v-.1h8.43c.26,0,.5-.06.7-.17.21-.11.37-.26.5-.45.13.22.31.39.54.51s.49.18.81.18.6-.06.83-.17c.23-.11.4-.29.53-.52.05.08.1.15.17.23.07.08.15.14.25.2.1.06.23.11.38.14.11.03.25.04.39.05h0s1.57,0,1.57,0v-4.87h-.54v4.33ZM13.07,53.56h-.55c-.2,0-.4-.03-.57-.08-.18-.06-.34-.14-.47-.25-.14-.11-.24-.24-.32-.4s-.11-.34-.11-.54.04-.37.12-.54.19-.3.33-.42c.14-.12.29-.2.47-.27s.36-.1.55-.1h.55v2.59ZM16.07,53.56l-.85-2.08c.21-.18.42-.3.64-.39.22-.08.45-.12.69-.12s.49.05.73.15c.24.1.44.22.61.36l-.85,2.08h-.97ZM30.28,54.1h.54v-4.87h-.54v4.87Z"/>
        <path class="cls-23" d="M72.45,21.7c-6.65,0-11.48,5.02-11.48,11.15v.06c0,6.13,4.77,11.08,11.42,11.08s11.48-5.02,11.48-11.15v-.06c0-6.13-4.77-11.08-11.42-11.08M78.92,32.9c0,3.7-2.65,6.71-6.47,6.71s-6.53-3.08-6.53-6.77v-.06c0-3.69,2.65-6.71,6.47-6.71s6.53,3.08,6.53,6.78v.06ZM7.73,39.52h8.22v4.1H0v-3.76l7.17-5.88c2.68-2.22,3.73-3.39,3.73-5.17s-1.2-2.8-2.9-2.8-2.8.92-4.4,2.89l-3.33-2.68c2.12-2.9,4.19-4.46,8.04-4.46,4.46,0,7.42,2.62,7.42,6.65v.06c0,3.6-1.85,5.39-5.67,8.34l-4.71,3.64-.92.71,3.29-1.63ZM59.74,36.88v.06c0,4.06-2.96,7.05-7.76,7.05-3.88,0-6.56-1.54-8.41-3.72l3.26-3.11c1.48,1.66,3.02,2.59,5.2,2.59,1.79,0,3.05-1.02,3.05-2.62v-.06c0-1.75-1.57-2.74-4.22-2.74h-1.97l-.74-3.02,6.91-6.96-2.77,1.78h-7.47v-4.06h14.56v3.57l-5.45,5.2c2.93.49,5.79,2.03,5.79,6.04"/>
        <path class="cls-27" d="M36.64,33.85c-.14-.08-.4-.21-.75-.32-.51-.16-1.22-.28-2.06-.15-.28.04-.58.12-.89.23-.03.01-.06.02-.09.03-.16.06-.31.13-.47.21-.13.07-.27.14-.4.22-.3.18-.6.39-.9.62-.33-2.01-.17-3.88-.09-4.79,0,0,0,0,.01,0,.71.45.51,1.7.36,2.06,0,0,0,.01.01,0,.89-1.05.45-2.21.27-2.5,0,0,0-.01.01,0,.13.1.23.21.32.33.28.35.38.73.4,1.06.02.18.01.34,0,.48,0,.04,0,.07,0,.11,0,0,0,0,0,0,0,0,0,0,0,0,.24-.47.35-1.18,0-1.87-.1-.19-.23-.37-.4-.55-.05-.05-.1-.1-.16-.15,0,0,0-.01,0-.01.05.01.1.03.15.04.15.05.29.13.4.21.27.2.45.47.56.76.09.23.13.48.13.69,0,0,.01,0,.01,0,.17-.61.07-1.08-.14-1.41-.15-.24-.35-.42-.56-.54-.14-.08-.28-.14-.4-.18-.07-.02-.14-.04-.19-.04,0,0,0-.01,0-.01.07,0,.13-.01.19-.01.15,0,.28.01.4.03.24.04.42.13.56.22.22.15.34.33.38.4,0,0,.01,0,.01,0-.03-.32-.18-.58-.39-.76-.16-.14-.36-.24-.56-.29-.13-.04-.27-.06-.4-.06-.18,0-.35.03-.5.09,0,0-.01,0,0-.01.13-.19.32-.3.51-.36.14-.04.27-.06.4-.05.12,0,.24.03.33.08,0,0,.01,0,0-.01-.1-.12-.22-.21-.34-.27-.13-.07-.26-.11-.4-.13-.36-.04-.72.11-.97.48,0,0-.01,0-.01,0-.05-.08-.09-.18-.13-.27-.1-.22-.18-.48-.22-.73,0,0-.01,0-.01,0-.04.25-.12.51-.22.73-.04.1-.09.19-.13.27,0,0,0,0-.01,0-.43-.65-1.22-.63-1.71-.08,0,0,0,.01,0,.01.32-.15.94-.11,1.24.33,0,0,0,.01,0,.01-.47-.2-1.2-.07-1.59.39-.14.17-.24.38-.26.63,0,0,0,.01.01,0,.03-.06.11-.18.25-.3.23-.2.63-.41,1.28-.34,0,0,.01.01,0,.01-.34.04-1.03.34-1.28,1.03-.11.3-.14.68-.02,1.15,0,0,.01,0,.01,0,0,0,0-.02,0-.03,0-.62.36-1.46,1.25-1.67,0,0,.01,0,0,.01-.99.87-.89,1.94-.57,2.57,0,0,.01,0,.01,0-.04-.48-.08-1.33.71-1.98,0,0,.02,0,.01,0-.18.29-.61,1.45.27,2.5,0,0,.02,0,.01,0-.15-.36-.35-1.61.36-2.06,0,0,.01,0,.01,0,.08.92.24,2.78-.09,4.79-.57-.44-1.17-.82-1.77-1.05-.07-.03-.15-.05-.22-.08-.62-.2-1.18-.26-1.67-.24-.79.04-1.39.27-1.73.44-.07.03-.12.07-.17.09-.02.01,0,.04.02.03.05-.01.1-.03.15-.04.61-.17,1.18-.22,1.73-.17.59.05,1.15.22,1.67.45.73.33,1.39.8,1.99,1.3-.84.74-1.56,1.45-1.99,1.71-.02.01-.04.02-.06.04-.1-.14-.28-.23-.48-.18-.17.04-.31.18-.35.35-.04.15,0,.32.09.4.23.23.5.25.8.12.58-.25,1.31-1.02,2.2-1.84.07-.07.15-.14.23-.21.08.07.15.14.23.2.4.37.78.73,1.11,1.04.14.13.27.25.4.35.2.16.39.3.56.39.34.18.64.2.89-.02.01-.01.03-.02.04-.04.06-.06.13-.25.09-.4-.02-.09-.07-.17-.13-.23-.06-.06-.14-.1-.22-.12-.2-.04-.38.04-.48.18-.06-.03-.12-.07-.19-.12-.16-.11-.35-.27-.56-.45-.13-.11-.26-.23-.4-.36-.28-.25-.58-.53-.9-.81.28-.24.58-.47.9-.68.13-.09.27-.17.4-.26.18-.11.37-.21.56-.3.29-.14.58-.25.89-.34.64-.18,1.32-.25,2.06-.13.24.04.48.09.73.17.02,0,.03-.02.02-.03"/>
        <rect class="cls-3" x="29.69" y="45.1" width="1.91" height="1.91" transform="translate(-23.59 35.14) rotate(-44.99)"/>
        <rect class="cls-3" x="19.5" y="37.17" width="1.58" height="1.58" transform="translate(-22.09 45.53) rotate(-72)"/>
        <rect class="cls-3" x="24.05" y="23.86" width="1.31" height="1.31" transform="translate(-3.36 45.1) rotate(-81.04)"/>
        <rect class="cls-3" x="40.09" y="32.03" width="1.31" height="1.31" transform="translate(-11.18 38.41) rotate(-45.02)"/>
        <rect class="cls-3" x="39.6" y="28.91" width="1.31" height="1.31" transform="translate(-4.37 52.01) rotate(-63)"/>
        <rect class="cls-3" x="24.05" y="40.21" width="1.31" height="1.31" transform="translate(-6.08 4.36) rotate(-8.99)"/>
        <rect class="cls-3" x="35.93" y="23.86" width="1.31" height="1.31" transform="translate(-3.38 6.02) rotate(-8.99)"/>
        <rect class="cls-3" x="26.87" y="41.64" width="1.31" height="1.31" transform="translate(-16.2 17.1) rotate(-26.99)"/>
        <rect class="cls-3" x="29.99" y="21.93" width="1.31" height="1.31" transform="translate(-7 28.27) rotate(-44.97)"/>
        <rect class="cls-3" x="28.73" y="23.47" width="1.09" height="1.09" transform="translate(-7.36 33.58) rotate(-54.01)"/>
        <rect class="cls-3" x="31.48" y="40.82" width="1.09" height="1.09" transform="translate(-20.27 42.97) rotate(-54.01)"/>
        <rect class="cls-3" x="22.27" y="28.16" width="1.09" height="1.08" transform="translate(-7.76 8.47) rotate(-18.03)"/>
        <rect class="cls-3" x="37.93" y="36.14" width="1.09" height="1.08" transform="translate(-9.46 13.71) rotate(-18.03)"/>
        <rect class="cls-3" x="21.42" y="33.52" width="1.09" height="1.09" transform="translate(-18.5 31.83) rotate(-54.02)"/>
        <rect class="cls-11" x="42.4" y="35.86" width="1.91" height="1.91" transform="translate(-11.99 23.69) rotate(-27)"/>
        <rect class="cls-11" x="21.83" y="42.54" width="1.91" height="1.91" transform="translate(-6.52 4.1) rotate(-9)"/>
        <rect class="cls-11" x="37.54" y="20.92" width="1.91" height="1.91" transform="translate(-2.95 6.29) rotate(-9)"/>
        <rect class="cls-11" x="18.38" y="33.72" width="1.58" height="1.58" transform="translate(-20.01 29.72) rotate(-53.98)"/>
        <rect class="cls-11" x="26.87" y="22.42" width="1.31" height="1.31" transform="translate(-5.54 37.12) rotate(-63)"/>
        <rect class="cls-11" x="20.38" y="28.91" width="1.31" height="1.31" transform="translate(-11.14 12.79) rotate(-27.04)"/>
        <rect class="cls-11" x="29.99" y="42.14" width="1.31" height="1.31" transform="translate(-21.28 34.15) rotate(-44.94)"/>
        <rect class="cls-11" x="37.93" y="28.16" width="1.08" height="1.09" transform="translate(-.71 56.42) rotate(-72)"/>
        <rect class="cls-11" x="23.89" y="38.36" width="1.08" height="1.08"/>
        <rect class="cls-24" x="16.98" y="27.6" width="1.91" height="1.91" transform="translate(-11.01 11.25) rotate(-27)"/>
        <rect class="cls-24" x="16.98" y="35.86" width="1.91" height="1.91" transform="translate(-23.01 36.08) rotate(-62.99)"/>
        <rect class="cls-24" x="24.58" y="21.55" width="1.58" height="1.58" transform="translate(-3.7 39.59) rotate(-72.06)"/>
        <rect class="cls-24" x="35.13" y="42.25" width="1.58" height="1.58" transform="translate(-16.1 63.96) rotate(-72.06)"/>
        <rect class="cls-24" x="40.21" y="37.17" width="1.58" height="1.58" transform="translate(-9.71 14.5) rotate(-17.98)"/>
        <rect class="cls-24" x="41.33" y="33.72" width="1.58" height="1.58" transform="translate(-12.24 31.37) rotate(-36.02)"/>
        <rect class="cls-24" x="40.21" y="26.62" width="1.58" height="1.58" transform="translate(2.26 57.93) rotate(-72)"/>
        <rect class="cls-24" x="38.07" y="23.68" width="1.58" height="1.58"/>
        <rect class="cls-24" x="24.58" y="42.25" width="1.58" height="1.58" transform="translate(-12.05 9.94) rotate(-17.99)"/>
        <rect class="cls-24" x="31.67" y="43.38" width="1.58" height="1.58" transform="translate(-22.35 44.45) rotate(-53.98)"/>
        <rect class="cls-24" x="20.38" y="35.16" width="1.31" height="1.31" transform="translate(-20.42 38.3) rotate(-63)"/>
        <rect class="cls-24" x="23.89" y="25.93" width="1.08" height="1.08"/>
        <rect class="cls-24" x="21.42" y="30.77" width="1.09" height="1.09" transform="translate(-14.22 18.91) rotate(-36.03)"/>
        <rect class="cls-24" x="34.09" y="24.32" width="1.09" height="1.08" transform="translate(-5.98 11.9) rotate(-17.98)"/>
        <rect class="cls-24" x="31.48" y="23.47" width="1.08" height="1.09" transform="translate(-8 23.39) rotate(-35.97)"/>
        <rect class="cls-24" x="36.38" y="36.73" width=".9" height=".9" transform="translate(-5.4 6.27) rotate(-9.07)"/>
        <polygon class="cls-24" points="38.28 32.05 37.65 32.69 38.28 33.33 38.92 32.69 38.28 32.05"/>
        <rect class="cls-9" x="42.4" y="27.6" width="1.91" height="1.91" transform="translate(-1.78 54.22) rotate(-62.99)"/>
        <rect class="cls-9" x="38.07" y="40.11" width="1.58" height="1.58"/>
        <rect class="cls-9" x="19.5" y="26.62" width="1.58" height="1.58" transform="translate(-7.47 7.6) rotate(-17.98)"/>
        <rect class="cls-9" x="35.13" y="21.54" width="1.58" height="1.58" transform="translate(-5.14 12.18) rotate(-17.99)"/>
        <rect class="cls-9" x="28.04" y="20.42" width="1.58" height="1.58" transform="translate(-5.28 32.05) rotate(-53.98)"/>
        <rect class="cls-9" x="39.6" y="35.16" width="1.31" height="1.31" transform="translate(-11.88 22.21) rotate(-27.04)"/>
        <rect class="cls-9" x="19.88" y="32.03" width="1.31" height="1.31" transform="translate(-17.1 24.11) rotate(-45.02)"/>
        <rect class="cls-9" x="38.78" y="33.52" width="1.09" height="1.09" transform="translate(-12.51 29.65) rotate(-36.03)"/>
        <rect class="cls-9" x="26.11" y="39.97" width="1.08" height="1.09" transform="translate(-11.2 10.21) rotate(-17.98)"/>
        <rect class="cls-9" x="30.19" y="39.88" width=".9" height=".9" transform="translate(-19.54 33.49) rotate(-45.01)"/>
        <rect class="cls-9" x="25.7" y="26.06" width=".9" height=".9" transform="translate(-4.1 48.22) rotate(-81.05)"/>
        <rect class="cls-9" x="22.93" y="34.6" width=".9" height=".9" transform="translate(-18.46 39.99) rotate(-63.02)"/>
        <rect class="cls-27" x="21.64" y="23.68" width="1.58" height="1.58"/>
        <rect class="cls-27" x="31.67" y="20.42" width="1.58" height="1.58" transform="translate(-6.27 23.14) rotate(-36.01)"/>
        <rect class="cls-27" x="33.11" y="41.64" width="1.31" height="1.31" transform="translate(-19.25 53.18) rotate(-63)"/>
        <rect class="cls-27" x="21.81" y="37.97" width="1.31" height="1.31" transform="translate(-19.2 54.78) rotate(-81)"/>
        <rect class="cls-27" x="38.16" y="26.09" width="1.31" height="1.31" transform="translate(6.33 60.91) rotate(-81)"/>
        <rect class="cls-27" x="36.32" y="38.36" width="1.08" height="1.08"/>
        <rect class="cls-27" x="38.78" y="30.77" width="1.09" height="1.09" transform="translate(-9.12 44.74) rotate(-54.02)"/>
        <rect class="cls-27" x="28.73" y="40.82" width="1.09" height="1.09" transform="translate(-18.72 25.08) rotate(-35.97)"/>
        <rect class="cls-27" x="27.83" y="24.97" width=".9" height=".9" transform="translate(-7.2 39.11) rotate(-63.05)"/>
        <polygon class="cls-27" points="33.61 39.76 32.81 39.35 32.4 40.15 33.2 40.56 33.61 39.76"/>
        <rect class="cls-27" x="34.69" y="38.42" width=".9" height=".9" transform="translate(-8.76 67.49) rotate(-80.99)"/>
        <rect class="cls-27" x="22.93" y="29.88" width=".9" height=".9" transform="translate(-11.22 13.92) rotate(-27)"/>
        <rect class="cls-27" x="37.46" y="34.6" width=".9" height=".9" transform="translate(-11.78 21.03) rotate(-27)"/>
        <rect class="cls-27" x="24.01" y="36.73" width=".9" height=".9" transform="translate(-16.09 55.51) rotate(-80.98)"/>
        <rect class="cls-27" x="34.69" y="26.06" width=".9" height=".9" transform="translate(-3.72 5.83) rotate(-9.02)"/>
        <polygon class="cls-27" points="27.68 39.76 28.09 40.56 28.89 40.15 28.48 39.35 27.68 39.76"/>
        <rect class="cls-10" x="21.83" y="20.92" width="1.91" height="1.91" transform="translate(-2.38 40.97) rotate(-81)"/>
        <rect class="cls-10" x="37.54" y="42.55" width="1.91" height="1.91" transform="translate(-10.49 74.72) rotate(-81)"/>
        <rect class="cls-10" x="29.69" y="18.37" width="1.91" height="1.91" transform="translate(-4.69 27.32) rotate(-44.99)"/>
        <rect class="cls-10" x="18.38" y="30.08" width="1.58" height="1.58" transform="translate(-14.49 17.17) rotate(-36.02)"/>
        <rect class="cls-10" x="41.33" y="30.08" width="1.58" height="1.58" transform="translate(-7.62 46.79) rotate(-53.98)"/>
        <rect class="cls-10" x="21.64" y="40.11" width="1.58" height="1.58"/>
        <rect class="cls-10" x="28.04" y="43.38" width="1.58" height="1.58" transform="translate(-20.46 25.39) rotate(-36.01)"/>
        <rect class="cls-10" x="35.93" y="40.21" width="1.31" height="1.31" transform="translate(-9.48 70.63) rotate(-81.04)"/>
        <rect class="cls-10" x="21.81" y="26.09" width="1.31" height="1.31" transform="translate(-3.91 3.85) rotate(-9.01)"/>
        <rect class="cls-10" x="38.16" y="37.97" width="1.31" height="1.31" transform="translate(-5.57 6.55) rotate(-9.01)"/>
        <rect class="cls-10" x="33.11" y="22.42" width="1.31" height="1.31" transform="translate(-6.8 17.84) rotate(-26.99)"/>
        <rect class="cls-10" x="26.11" y="24.32" width="1.08" height="1.09" transform="translate(-5.22 42.54) rotate(-72.02)"/>
        <rect class="cls-10" x="34.09" y="39.98" width="1.09" height="1.09" transform="translate(-14.6 60.95) rotate(-72.02)"/>
        <rect class="cls-10" x="22.27" y="36.14" width="1.08" height="1.09" transform="translate(-19.11 47.05) rotate(-72.02)"/>
        <rect class="cls-10" x="36.32" y="25.93" width="1.08" height="1.08"/>
        <rect class="cls-10" x="30.19" y="24.6" width=".9" height=".9" transform="translate(-8.74 28.98) rotate(-44.97)"/>
        <rect class="cls-10" x="24.01" y="27.75" width=".9" height=".9" transform="translate(-4.14 4.21) rotate(-9.07)"/>
        <polygon class="cls-10" points="23 32.05 22.37 32.69 23 33.33 23.64 32.69 23 32.05"/>
        <rect class="cls-10" x="37.46" y="29.88" width=".9" height=".9" transform="translate(-6.31 50.36) rotate(-63.02)"/>
        <rect class="cls-10" x="36.38" y="27.75" width=".9" height=".9" transform="translate(3.2 60.15) rotate(-80.98)"/>
        <rect class="cls-10" x="25.7" y="38.42" width=".9" height=".9" transform="translate(-5.77 4.58) rotate(-9.02)"/>
        <rect class="cls-10" x="32.56" y="24.97" width=".9" height=".9" transform="translate(-7.94 17.75) rotate(-27)"/>
        <path class="cls-23" d="M243,35.71c-.29-.16-.81-.43-1.54-.66-1.04-.33-2.5-.58-4.22-.31-.58.09-1.19.25-1.83.47-.06.02-.12.04-.18.07-.32.12-.65.27-.97.43-.27.14-.55.29-.82.46-.62.37-1.24.81-1.84,1.27-.68-4.12-.35-7.95-.19-9.83,0-.01.01-.02.02-.01,1.46.92,1.05,3.49.74,4.22,0,.01.02.02.03.01,1.82-2.15.93-4.52.56-5.13,0-.01.01-.03.02-.02.26.21.48.44.66.67.56.72.77,1.5.82,2.18.03.36.02.7,0,.99,0,.08-.01.15-.02.22,0,0,0,.01.02.01,0,0,0,0,.01,0,.49-.96.73-2.42-.01-3.84-.2-.38-.47-.76-.82-1.13-.1-.11-.21-.21-.33-.31-.01,0,0-.03.01-.02.11.03.21.06.32.09.31.11.58.26.82.43.55.41.93.97,1.15,1.55.19.48.27.98.27,1.42,0,.02.02.02.03,0,.34-1.26.14-2.21-.3-2.9-.31-.49-.73-.86-1.15-1.11-.29-.17-.57-.29-.82-.37-.15-.04-.28-.07-.39-.09-.02,0-.01-.03,0-.03.14-.01.27-.02.39-.02.31,0,.58.02.82.07.49.09.86.26,1.15.46.46.31.69.68.77.83,0,.01.03,0,.03-.01-.07-.67-.37-1.18-.8-1.56-.33-.29-.73-.49-1.15-.61-.27-.08-.55-.11-.82-.12-.37,0-.73.05-1.03.18-.01,0-.02,0-.02-.02.27-.38.65-.62,1.05-.74.28-.08.56-.11.82-.1.25.02.49.07.68.16.02,0,.03,0,.02-.02-.21-.24-.44-.42-.69-.56-.26-.15-.54-.24-.82-.27-.74-.08-1.49.23-1.99.99,0,0-.02,0-.02,0-.1-.17-.19-.36-.28-.56-.2-.46-.36-.99-.45-1.5,0-.02-.02-.02-.02,0-.09.52-.25,1.04-.45,1.51-.09.2-.18.39-.27.55,0,0-.02,0-.02,0-.87-1.32-2.51-1.3-3.5-.15,0,.01,0,.03.02.02.66-.31,1.92-.22,2.55.68,0,.01,0,.03-.02.02-.97-.41-2.47-.14-3.27.81-.29.34-.48.77-.53,1.29,0,.02.02.02.03.01.06-.12.22-.37.51-.62.47-.41,1.29-.83,2.63-.71.02,0,.02.02,0,.03-.69.08-2.11.7-2.64,2.11-.23.62-.29,1.4-.03,2.36,0,.02.03.01.03,0,0-.02,0-.04,0-.07.01-1.28.75-3,2.56-3.43.02,0,.02.01.01.02-2.03,1.78-1.82,3.99-1.16,5.29,0,.02.03,0,.03,0-.09-.98-.16-2.74,1.46-4.06.01,0,.03,0,.02.02-.37.6-1.26,2.98.55,5.13.01.01.03,0,.03-.01-.3-.73-.71-3.3.74-4.22,0,0,.02,0,.02.01.16,1.88.49,5.71-.19,9.84-1.17-.9-2.41-1.69-3.64-2.16-.15-.06-.3-.11-.45-.16-1.26-.42-2.42-.53-3.43-.49-1.62.07-2.86.56-3.54.9-.14.07-.25.13-.34.18-.04.02-.01.07.03.06.11-.03.21-.06.31-.09,1.25-.35,2.43-.45,3.54-.35,1.22.11,2.36.44,3.43.93,1.5.68,2.86,1.64,4.09,2.66-1.73,1.51-3.2,2.98-4.09,3.5-.04.02-.09.05-.13.07-.21-.29-.58-.46-.99-.37-.35.08-.64.36-.72.71-.07.31.01.65.19.83.47.47,1.02.5,1.65.24,1.2-.5,2.69-2.09,4.52-3.77.15-.14.31-.28.46-.42.16.14.31.28.46.42.83.76,1.59,1.5,2.29,2.14.29.26.56.5.82.72.41.33.79.61,1.15.8.7.37,1.31.42,1.83-.04.03-.02.06-.05.08-.08.12-.12.26-.51.19-.83-.04-.18-.14-.34-.27-.47-.12-.12-.28-.2-.44-.24-.41-.09-.78.08-.99.37-.12-.06-.25-.14-.4-.24-.33-.23-.71-.55-1.15-.93-.26-.23-.53-.48-.82-.74-.56-.51-1.19-1.08-1.84-1.66.58-.49,1.2-.96,1.84-1.4.27-.18.54-.36.82-.52.37-.22.76-.43,1.15-.62.59-.28,1.2-.52,1.83-.7,1.31-.37,2.71-.5,4.22-.26.49.08.99.19,1.51.36.04.01.07-.04.03-.06"/>
        <rect class="cls-25" x="228.73" y="58.8" width="3.92" height="3.92" transform="translate(24.61 180.94) rotate(-45.01)"/>
        <rect class="cls-25" x="207.82" y="42.54" width="3.25" height="3.25" transform="translate(102.7 229.69) rotate(-71.99)"/>
        <rect class="cls-25" x="217.16" y="15.21" width="2.69" height="2.69" transform="translate(167.95 229.77) rotate(-81)"/>
        <rect class="cls-25" x="250.09" y="31.99" width="2.69" height="2.69" transform="translate(50.09 187.57) rotate(-45.01)"/>
        <rect class="cls-25" x="249.07" y="25.58" width="2.69" height="2.69" transform="translate(112.81 237.87) rotate(-63.02)"/>
        <rect class="cls-25" x="217.16" y="48.77" width="2.69" height="2.69" transform="translate(-5.15 34.81) rotate(-9)"/>
        <rect class="cls-25" x="241.54" y="15.21" width="2.69" height="2.69" transform="translate(.4 38.22) rotate(-9)"/>
        <rect class="cls-25" x="222.94" y="51.71" width="2.69" height="2.69" transform="translate(.34 107.52) rotate(-26.98)"/>
        <rect class="cls-25" x="229.35" y="11.25" width="2.69" height="2.69" transform="translate(58.64 166.79) rotate(-44.99)"/>
        <rect class="cls-25" x="226.76" y="14.41" width="2.23" height="2.23" transform="translate(81.35 190.73) rotate(-53.99)"/>
        <rect class="cls-25" x="232.4" y="50.03" width="2.23" height="2.23" transform="translate(54.86 209.98) rotate(-53.99)"/>
        <rect class="cls-25" x="213.51" y="24.03" width="2.23" height="2.23" transform="translate(2.74 67.58) rotate(-18.01)"/>
        <rect class="cls-25" x="245.65" y="40.41" width="2.23" height="2.23" transform="translate(-.75 78.32) rotate(-18.01)"/>
        <rect class="cls-25" x="211.77" y="35.04" width="2.23" height="2.23" transform="translate(58.54 187.16) rotate(-54.01)"/>
        <rect class="cls-25" x="254.82" y="39.85" width="3.92" height="3.92" transform="translate(9.01 121.13) rotate(-27)"/>
        <rect class="cls-25" x="212.61" y="53.56" width="3.92" height="3.92" transform="translate(-6.05 34.28) rotate(-9.01)"/>
        <rect class="cls-25" x="244.85" y="9.18" width="3.92" height="3.92" transform="translate(1.3 38.79) rotate(-9.01)"/>
        <rect class="cls-25" x="205.51" y="35.44" width="3.25" height="3.25" transform="translate(55.42 182.87) rotate(-54.01)"/>
        <rect class="cls-25" x="222.94" y="12.26" width="2.69" height="2.69" transform="translate(110.41 207.31) rotate(-63.02)"/>
        <rect class="cls-25" x="209.62" y="25.58" width="2.69" height="2.69" transform="translate(10.77 98.7) rotate(-27)"/>
        <rect class="cls-25" x="229.35" y="52.73" width="2.69" height="2.69" transform="translate(29.32 178.94) rotate(-44.99)"/>
        <rect class="cls-25" x="245.65" y="24.03" width="2.23" height="2.23" transform="translate(146.6 252.06) rotate(-72)"/>
        <rect class="cls-25" x="216.83" y="44.97" width="2.23" height="2.23"/>
        <rect class="cls-25" x="202.65" y="22.9" width="3.92" height="3.92" transform="translate(11.02 95.6) rotate(-27)"/>
        <rect class="cls-25" x="202.64" y="39.85" width="3.92" height="3.92" transform="translate(74.48 205.14) rotate(-63)"/>
        <rect class="cls-25" x="218.24" y="10.46" width="3.25" height="3.25" transform="translate(140.48 217.47) rotate(-72.01)"/>
        <rect class="cls-25" x="239.9" y="52.96" width="3.25" height="3.25" transform="translate(114.96 267.41) rotate(-72)"/>
        <rect class="cls-25" x="250.32" y="42.54" width="3.25" height="3.25" transform="translate(-1.3 80.1) rotate(-18.02)"/>
        <rect class="cls-25" x="252.63" y="35.44" width="3.25" height="3.25" transform="translate(26.76 156.5) rotate(-35.99)"/>
        <rect class="cls-25" x="250.32" y="20.88" width="3.25" height="3.25" transform="translate(152.68 255.16) rotate(-72)"/>
        <rect class="cls-25" x="245.93" y="14.84" width="3.25" height="3.25"/>
        <rect class="cls-25" x="218.24" y="52.96" width="3.25" height="3.25" transform="translate(-6.11 70.61) rotate(-18)"/>
        <rect class="cls-25" x="232.8" y="55.27" width="3.25" height="3.25" transform="translate(50.58 213.08) rotate(-53.99)"/>
        <rect class="cls-25" x="209.62" y="38.4" width="2.69" height="2.69" transform="translate(79.83 209.72) rotate(-63.02)"/>
        <rect class="cls-25" x="216.83" y="19.47" width="2.23" height="2.23"/>
        <rect class="cls-25" x="211.77" y="29.4" width="2.23" height="2.23" transform="translate(22.77 131.05) rotate(-36.03)"/>
        <rect class="cls-25" x="237.77" y="16.15" width="2.23" height="2.23" transform="translate(6.35 74.64) rotate(-17.99)"/>
        <rect class="cls-25" x="232.4" y="14.41" width="2.23" height="2.23" transform="translate(35.44 140.16) rotate(-35.98)"/>
        <rect class="cls-25" x="242.46" y="41.63" width="1.84" height="1.84" transform="translate(-3.66 38.55) rotate(-8.99)"/>
        <rect class="cls-25" x="245.45" y="32.41" width="1.84" height="1.84" transform="translate(48.63 184.02) rotate(-45.01)"/>
        <rect class="cls-25" x="254.82" y="22.9" width="3.92" height="3.92" transform="translate(118.05 242.36) rotate(-63)"/>
        <rect class="cls-25" x="245.93" y="48.57" width="3.25" height="3.25"/>
        <rect class="cls-25" x="207.82" y="20.88" width="3.25" height="3.25" transform="translate(3.31 65.89) rotate(-18.02)"/>
        <rect class="cls-25" x="239.9" y="10.46" width="3.25" height="3.25" transform="translate(8.09 75.24) rotate(-18)"/>
        <rect class="cls-25" x="225.34" y="8.15" width="3.25" height="3.25" transform="translate(85.62 187.62) rotate(-53.99)"/>
        <rect class="cls-25" x="249.07" y="38.4" width="2.69" height="2.69" transform="translate(9.27 118.08) rotate(-27.02)"/>
        <rect class="cls-25" x="208.61" y="31.99" width="2.69" height="2.69" transform="translate(37.94 158.24) rotate(-45.01)"/>
        <rect class="cls-25" x="247.39" y="35.04" width="2.23" height="2.23" transform="translate(26.26 153.08) rotate(-36.03)"/>
        <rect class="cls-25" x="221.39" y="48.29" width="2.23" height="2.23" transform="translate(-4.38 71.18) rotate(-18)"/>
        <rect class="cls-25" x="229.77" y="48.09" width="1.84" height="1.84" transform="translate(32.88 177.43) rotate(-44.99)"/>
        <rect class="cls-25" x="220.55" y="19.72" width="1.84" height="1.84" transform="translate(166.61 236.21) rotate(-81.05)"/>
        <rect class="cls-25" x="214.85" y="37.26" width="1.84" height="1.84" transform="translate(83.79 213.1) rotate(-63)"/>
        <rect class="cls-25" x="212.2" y="14.84" width="3.25" height="3.25"/>
        <rect class="cls-25" x="232.8" y="8.15" width="3.25" height="3.25" transform="translate(39 139.63) rotate(-35.99)"/>
        <rect class="cls-25" x="235.76" y="51.71" width="2.69" height="2.69" transform="translate(82.26 240.29) rotate(-63.02)"/>
        <rect class="cls-25" x="212.57" y="44.18" width="2.69" height="2.69" transform="translate(135.46 249.67) rotate(-80.99)"/>
        <rect class="cls-25" x="246.13" y="19.8" width="2.69" height="2.69" transform="translate(187.83 262.25) rotate(-80.99)"/>
        <rect class="cls-25" x="242.33" y="44.97" width="2.23" height="2.23"/>
        <rect class="cls-25" x="247.39" y="29.4" width="2.23" height="2.23" transform="translate(77.8 213.66) rotate(-54.01)"/>
        <rect class="cls-25" x="226.76" y="50.03" width="2.23" height="2.23" transform="translate(13.43 143.64) rotate(-35.98)"/>
        <rect class="cls-25" x="224.92" y="17.5" width="1.85" height="1.84" transform="translate(106.88 211.27) rotate(-62.99)"/>
        <rect class="cls-25" x="234.61" y="47.33" width="1.85" height="1.84" transform="translate(85.55 236.16) rotate(-62.98)"/>
        <rect class="cls-25" x="238.99" y="45.1" width="1.84" height="1.84" transform="translate(156.99 275.8) rotate(-81.02)"/>
        <rect class="cls-25" x="214.85" y="27.57" width="1.84" height="1.84" transform="translate(10.59 101.09) rotate(-27.01)"/>
        <rect class="cls-25" x="244.68" y="37.26" width="1.84" height="1.84" transform="translate(9.5 115.86) rotate(-27.05)"/>
        <rect class="cls-25" x="217.08" y="41.63" width="1.84" height="1.84" transform="translate(141.81 251.19) rotate(-80.98)"/>
        <rect class="cls-25" x="238.99" y="19.72" width="1.84" height="1.84" transform="translate(-.27 37.83) rotate(-9.01)"/>
        <rect class="cls-25" x="224.92" y="47.33" width="1.84" height="1.85" transform="translate(2.71 107.79) rotate(-27)"/>
        <rect class="cls-25" x="212.61" y="9.18" width="3.92" height="3.92" transform="translate(170 221.33) rotate(-81)"/>
        <rect class="cls-25" x="244.85" y="53.56" width="3.92" height="3.92" transform="translate(153.36 290.61) rotate(-81)"/>
        <rect class="cls-25" x="228.73" y="3.94" width="3.92" height="3.92" transform="translate(63.38 164.84) rotate(-44.99)"/>
        <rect class="cls-25" x="205.51" y="27.98" width="3.25" height="3.25" transform="translate(22.17 127.43) rotate(-36.01)"/>
        <rect class="cls-25" x="252.62" y="27.98" width="3.25" height="3.25" transform="translate(80.91 217.95) rotate(-54.02)"/>
        <rect class="cls-25" x="212.2" y="48.57" width="3.25" height="3.25"/>
        <rect class="cls-25" x="225.34" y="55.27" width="3.25" height="3.25" transform="translate(9.89 144.23) rotate(-35.99)"/>
        <rect class="cls-25" x="241.54" y="48.77" width="2.69" height="2.69" transform="translate(155.37 282.16) rotate(-81)"/>
        <rect class="cls-25" x="212.57" y="19.8" width="2.69" height="2.69" transform="translate(-.67 33.82) rotate(-9.03)"/>
        <rect class="cls-25" x="246.13" y="44.18" width="2.69" height="2.69" transform="translate(-4.08 39.38) rotate(-9.03)"/>
        <rect class="cls-25" x="235.76" y="12.26" width="2.69" height="2.69" transform="translate(19.63 109.05) rotate(-26.98)"/>
        <rect class="cls-25" x="221.39" y="16.15" width="2.23" height="2.23" transform="translate(137.47 223.6) rotate(-72.04)"/>
        <rect class="cls-25" x="237.77" y="48.29" width="2.23" height="2.23" transform="translate(118.14 261.36) rotate(-72.02)"/>
        <rect class="cls-25" x="213.51" y="40.41" width="2.23" height="2.23" transform="translate(108.82 232.81) rotate(-72)"/>
        <rect class="cls-25" x="242.33" y="19.47" width="2.23" height="2.23"/>
        <rect class="cls-25" x="229.77" y="16.73" width="1.84" height="1.84" transform="translate(55.11 168.32) rotate(-45.01)"/>
        <rect class="cls-25" x="217.08" y="23.19" width="1.84" height="1.84" transform="translate(-1.09 34.34) rotate(-8.98)"/>
        <rect class="cls-25" x="214.09" y="32.41" width="1.84" height="1.84" transform="translate(39.43 161.84) rotate(-45.01)"/>
        <rect class="cls-25" x="244.68" y="27.57" width="1.84" height="1.84" transform="translate(108.71 234.39) rotate(-63)"/>
        <rect class="cls-25" x="242.46" y="23.19" width="1.84" height="1.84" transform="translate(181.41 260.71) rotate(-80.98)"/>
        <rect class="cls-25" x="220.55" y="45.1" width="1.84" height="1.84" transform="translate(-4.48 35.27) rotate(-9.01)"/>
        <rect class="cls-25" x="234.62" y="17.5" width="1.84" height="1.85" transform="translate(17.31 108.94) rotate(-27)"/>
        <path class="cls-23" d="M129.98,20.36c-2.03,0-2.79-.94-2.79-2.43,0-1.37.85-2.62,2.76-2.62,1.24,0,2.2.37,2.2.37v3.6h1.08v1.09h-3.24ZM128.99,13.37c.38,0,.68.29.68.68s-.29.68-.68.68-.68-.31-.68-.68.3-.68.68-.68M130.81,16.58s-.4-.19-.99-.19c-.79,0-1.24.6-1.24,1.41,0,.95.47,1.46,1.57,1.46h.67v-2.69ZM130.66,13.37c.37,0,.68.3.68.68s-.3.68-.68.68-.68-.31-.68-.68.3-.68.68-.68"/>
        <rect class="cls-23" x="133.07" y="19.27" width="1.27" height="1.09"/>
        <rect class="cls-23" x="134.18" y="19.27" width="1.27" height="1.09"/>
        <rect class="cls-23" x="135.29" y="19.27" width="1.27" height="1.09"/>
        <rect class="cls-23" x="135.98" y="19.27" width="1.27" height="1.09"/>
        <rect class="cls-23" x="137.09" y="19.27" width="1.27" height="1.09"/>
        <rect class="cls-23" x="138.19" y="19.27" width="1.27" height="1.09"/>
        <rect class="cls-23" x="139.3" y="19.27" width="1.27" height="1.09"/>
        <rect class="cls-23" x="140.41" y="19.27" width="1.27" height="1.09"/>
        <rect class="cls-23" x="141.52" y="19.27" width="1.27" height="1.09"/>
        <rect class="cls-23" x="142.63" y="19.27" width="1.27" height="1.09"/>
        <rect class="cls-23" x="143.73" y="19.27" width="1.27" height="1.09"/>
        <rect class="cls-23" x="144.84" y="19.27" width="1.27" height="1.09"/>
        <rect class="cls-23" x="145.95" y="19.27" width="1.27" height="1.09"/>
        <rect class="cls-23" x="147.06" y="19.27" width="1.27" height="1.09"/>
        <rect class="cls-23" x="148.17" y="19.27" width="1.27" height="1.09"/>
        <path class="cls-23" d="M148.65,19.81c0-.32.42-.54.63-.54h1.23v-3.83h1.38v3.83h1.08v1.09h-3.69c-.21,0-.63-.21-.63-.54M150.35,21.12c.37,0,.68.3.68.68s-.3.68-.68.68-.68-.31-.68-.68.3-.68.68-.68M152.03,21.12c.37,0,.68.3.68.68s-.3.68-.68.68-.68-.31-.68-.68.3-.68.68-.68"/>
        <path class="cls-23" d="M154.52,19.55c-.19.48-.61.81-1.48.81h-.22c-.21,0-.63-.21-.63-.54s.42-.54.63-.54h.07c.63,0,1.04-.34,1.04-1.42,0-1.33.91-2.54,2.72-2.54,1.63,0,2.36.94,2.36,2.4v1.56h.84v1.09h-2.98c-1.51,0-1.98-.33-2.34-.81M157.65,17.88c0-1.05-.42-1.48-1.12-1.48-.79,0-1.24.6-1.24,1.41,0,.98.48,1.46,1.57,1.46h.8v-1.39Z"/>
        <path class="cls-23" d="M159.06,19.81c0-.32.42-.54.63-.54h1.23v-3.83h1.38v3.83h1.08v1.09h-3.69c-.21,0-.63-.21-.63-.54M161.61,13.36c.39,0,.72.32.72.72s-.33.72-.72.72-.72-.33-.72-.72.33-.72.72-.72"/>
        <path class="cls-23" d="M163.22,20.36c-.21,0-.63-.21-.63-.54s.42-.54.63-.54h1.23v-3.83h1.38v4.92h-2.61ZM164.25,13.37c.38,0,.68.29.68.68s-.29.68-.68.68-.68-.31-.68-.68.3-.68.68-.68M165.93,13.37c.37,0,.68.3.68.68s-.3.68-.68.68-.68-.31-.68-.68.3-.68.68-.68"/>
        <path class="cls-23" d="M172.59,20.36c-1.55,0-1.97.51-1.97,1.15,0,.58.52,1.11,1.72,1.11l-.09,1.09c-2.05,0-3-.9-3-2.11,0-1.32.99-2.32,3.39-2.32h.71c.03-.25.05-.53.05-.8,0-1.33-.54-2.01-2.05-2.01-.43,0-.82.03-1.2.08v-1.08c.41-.05.89-.09,1.34-.09,2.35,0,3.28,1.04,3.28,3.04,0,.25-.01.54-.04.85h.66v1.09h-2.8ZM173.28,21.06c.4,0,.71.29.71.71s-.31.71-.71.71-.71-.31-.71-.71.3-.71.71-.71"/>
        <path class="cls-23" d="M175.23,20.36c-.21,0-.63-.21-.63-.54s.42-.54.63-.54h.81c.37,0,.59.07.59.07-.39-.28-.59-.75-.59-1.5,0-1.33.91-2.54,2.72-2.54,1.63,0,2.36.94,2.36,2.4v2.65h-5.89ZM179.77,17.88c0-1.05-.42-1.48-1.12-1.48-.79,0-1.24.6-1.24,1.41,0,.98.48,1.46,1.57,1.46h.8v-1.39Z"/>
        <polygon class="cls-23" points="182.63 12.98 184.01 12.98 184.01 19.27 185.09 19.27 185.09 20.36 182.63 20.36 182.63 12.98"/>
        <path class="cls-23" d="M184.93,20.36c-.21,0-.63-.21-.63-.54s.42-.54.63-.54h1.23v-3.83h1.38v4.92h-2.61ZM186.85,13.36c.39,0,.72.32.72.72s-.33.72-.72.72-.72-.33-.72-.72.33-.72.72-.72"/>
        <path class="cls-23" d="M187.71,22.91l.1-1.1c.25.08.51.13.85.13.71,0,1.13-.33,1.13-1.46v-5.03h1.38v3.83h1.08v1.09h-1.08v.04c0,1.34-.46,2.62-2.58,2.62-.32,0-.63-.04-.88-.11"/>
        <path class="cls-23" d="M191.84,20.36c-.21,0-.63-.21-.63-.54s.42-.54.63-.54h1.23v-3.83h1.38v4.92h-2.61ZM193.7,21.06c.4,0,.71.29.71.71s-.31.71-.71.71-.71-.31-.71-.71.3-.71.71-.71"/>
        <path class="cls-23" d="M129.96,32.45c-2.03,0-2.79-.94-2.79-2.42,0-1.37.85-2.63,2.76-2.63,1.24,0,2.2.37,2.2.37v3.6h1.08v1.09h-3.24ZM128.97,25.46c.38,0,.68.29.68.68s-.29.68-.68.68-.68-.31-.68-.68.3-.68.68-.68M130.79,28.67s-.4-.19-.99-.19c-.79,0-1.24.6-1.24,1.41,0,.95.47,1.46,1.57,1.46h.67v-2.69ZM130.64,25.46c.37,0,.68.3.68.68s-.3.68-.68.68-.68-.31-.68-.68.3-.68.68-.68"/>
        <path class="cls-23" d="M133.05,32.45c-.21,0-.63-.21-.63-.54s.42-.54.63-.54h1.23v-3.83h1.38v4.92h-2.61ZM133.38,33.21c.37,0,.68.3.68.68s-.3.68-.68.68-.68-.31-.68-.68.3-.68.68-.68M135.05,33.21c.37,0,.68.3.68.68s-.3.68-.68.68-.68-.31-.68-.68.3-.68.68-.68"/>
        <path class="cls-23" d="M136.26,35l.1-1.1c.25.07.51.12.85.12.71,0,1.13-.33,1.13-1.46v-5.03h1.38v3.83h1.08v1.09h-1.08v.04c0,1.34-.46,2.61-2.58,2.61-.32,0-.63-.04-.88-.1"/>
        <path class="cls-23" d="M145.38,31.73c-.21.45-.76.8-1.58.8-.68,0-1.23-.31-1.4-.82-.21.48-.63.73-1.39.73h-.37c-.21,0-.63-.21-.63-.54s.42-.54.63-.54h.38c.68,0,.94-.27.94-1.3v-1.9h1.38v1.93c0,.94.1,1.35.72,1.35.54,0,.85-.32.85-1.34v-2.36h1.33v2.62c0,.83.28.99,1.24.99h.28c.04-.42.06-.93.06-1.26,0-1.05-.13-2.01-.3-2.8l1.35-.19c.2.84.33,1.86.33,2.9,0,.42-.01.89-.04,1.35h1.03v1.09h-2.87c-1.1,0-1.65-.15-1.95-.72M144.64,25.51c.37,0,.68.3.68.68s-.31.68-.68.68-.68-.3-.68-.68.3-.68.68-.68M145.51,24.14c.38,0,.68.3.68.68s-.3.68-.68.68-.68-.3-.68-.68.3-.68.68-.68M146.37,25.51c.38,0,.68.3.68.68s-.3.68-.68.68-.68-.3-.68-.68.31-.68.68-.68"/>
        <path class="cls-23" d="M150.04,32.45c-.21,0-.63-.21-.63-.54s.42-.54.63-.54h1.23v-3.83h1.38v3.83h1.08v1.09h-3.69ZM151.95,33.15c.4,0,.71.29.71.71s-.31.71-.71.71-.71-.31-.71-.71.3-.71.71-.71"/>
        <path class="cls-23" d="M153.57,32.45c-.21,0-.63-.21-.63-.54s.42-.54.63-.54h1.23v-6.29h1.38v7.37h-2.61Z"/>
        <rect class="cls-23" x="157.86" y="25.07" width="1.38" height="7.37"/>
        <path class="cls-23" d="M166.81,32.45c-2.84,0-3.84-1.18-3.84-3.09,0-.57.11-1.21.27-1.64l1.48-.24c-.23.48-.37,1.17-.37,1.73,0,1.48.64,2.17,2.6,2.17h1.41v-3.83h1.38v4.92h-2.95ZM165.82,25.46c.38,0,.68.29.68.68s-.29.68-.68.68-.68-.31-.68-.68.3-.68.68-.68M167.49,25.46c.37,0,.68.3.68.68s-.3.68-.68.68-.68-.31-.68-.68.3-.68.68-.68"/>
        <rect class="cls-23" x="171.45" y="25.07" width="1.38" height="7.37"/>
        <path class="cls-23" d="M173,35l.1-1.1c.25.07.51.12.85.12.71,0,1.13-.33,1.13-1.46v-5.03h1.38v4.96c0,1.34-.46,2.61-2.58,2.61-.32,0-.63-.04-.88-.1"/>
        <path class="cls-23" d="M177.53,31.36h3.1c-.06-1.55-.82-2.51-2.47-2.93l.33-1.15c2.16.56,3.36,1.75,3.48,4.08h.59v1.09h-5.03v-1.09Z"/>
        <path class="cls-23" d="M182.41,32.45c-.21,0-.63-.21-.63-.54s.42-.54.63-.54h.63c.32,0,.65.05.65.05-.32-.32-.49-.81-.49-1.41,0-1.51,1.08-2.6,2.67-2.6,1.47,0,2.43.77,2.43,2.44,0,.61-.21,1.24-.61,1.58,0,0,.44-.05.81-.05h.45v1.09h-6.53ZM184.93,25.46c.38,0,.68.29.68.68s-.29.68-.68.68-.68-.31-.68-.68.3-.68.68-.68M186.9,29.91c0-.92-.37-1.42-1.15-1.42-.6,0-1.17.42-1.17,1.4s.39,1.47,1.15,1.47c.66,0,1.17-.48,1.17-1.45M186.6,25.46c.37,0,.68.3.68.68s-.3.68-.68.68-.68-.31-.68-.68.3-.68.68-.68"/>
        <path class="cls-23" d="M188.78,32.45c-.21,0-.63-.21-.63-.54s.42-.54.63-.54h1.23v-6.29h1.38v7.37h-2.61Z"/>
        <rect class="cls-23" x="193.06" y="25.07" width="1.38" height="7.37"/>
        <polygon class="cls-23" points="131.5 44.45 131.5 41.86 128.64 41.86 128.64 44.45 127.88 44.45 127.88 38.84 128.64 38.84 128.64 41.21 131.5 41.21 131.5 38.84 132.26 38.84 132.26 44.45 131.5 44.45"/>
        <path class="cls-23" d="M136.26,44.45c0-.36.02-.65.07-.87h-.02c-.27.63-.76.95-1.46.95-.83,0-1.24-.44-1.24-1.32v-2.89h.74v2.66c0,.62.23.93.71.93.34,0,.62-.15.85-.46.22-.31.33-.69.33-1.15v-1.98h.75v4.13h-.72Z"/>
        <path class="cls-23" d="M143.72,44.45v-2.65c0-.63-.23-.94-.67-.94-.31,0-.58.15-.8.44-.24.31-.36.71-.36,1.19v1.96h-.74v-2.65c0-.63-.22-.94-.67-.94-.32,0-.59.15-.82.46-.23.32-.34.71-.34,1.17v1.96h-.75v-4.13h.72c0,.35-.02.64-.06.87h0c.26-.63.74-.95,1.44-.95.39,0,.68.11.89.34.15.17.23.36.26.6.28-.62.75-.94,1.41-.94.82,0,1.23.45,1.23,1.36v2.85h-.75Z"/>
        <path class="cls-23" d="M148.25,44.45c0-.39.01-.67.04-.83h-.02c-.24.6-.7.9-1.41.9-.34,0-.62-.1-.83-.31-.21-.21-.32-.47-.32-.81,0-.45.22-.79.65-1.04.44-.25,1.05-.38,1.84-.38v-.19c0-.34-.06-.58-.19-.73-.14-.16-.36-.24-.68-.24-.4,0-.82.1-1.25.3l-.14-.59c.48-.2.98-.3,1.49-.3,1.02,0,1.52.48,1.52,1.45v1.58c0,.44,0,.83.02,1.19h-.73ZM148.2,42.51c-1.16,0-1.75.26-1.75.79,0,.19.06.33.18.45.12.12.27.18.46.18.32,0,.59-.14.81-.41.2-.26.31-.56.31-.9v-.11Z"/>
        <path class="cls-23" d="M153.13,44.45v-2.66c0-.62-.24-.94-.71-.94-.34,0-.62.16-.84.46-.22.31-.33.69-.33,1.15v1.98h-.75v-4.13h.72c0,.36-.02.65-.07.87h.02c.27-.63.75-.95,1.45-.95.83,0,1.25.44,1.25,1.32v2.89h-.75Z"/>
        <path class="cls-23" d="M161.02,44.22c-.49.2-1,.3-1.54.3-.87,0-1.52-.26-1.95-.77-.4-.47-.6-1.12-.6-1.96,0-.9.22-1.62.66-2.14.48-.57,1.17-.86,2.08-.86.46,0,.89.06,1.29.17l-.12.7c-.42-.14-.84-.21-1.25-.21-.61,0-1.07.21-1.39.64-.29.39-.44.91-.44,1.57,0,1.45.64,2.18,1.91,2.18.44,0,.85-.09,1.23-.28l.13.67Z"/>
        <path class="cls-23" d="M164.55,44.45c0-.39.01-.67.04-.83h-.02c-.23.6-.7.9-1.41.9-.34,0-.62-.1-.83-.31-.21-.21-.32-.47-.32-.81,0-.45.22-.79.65-1.04.44-.25,1.05-.38,1.84-.38v-.19c0-.34-.06-.58-.19-.73-.14-.16-.36-.24-.68-.24-.4,0-.82.1-1.25.3l-.14-.59c.48-.2.98-.3,1.49-.3,1.02,0,1.52.48,1.52,1.45v1.58c0,.44,0,.83.02,1.19h-.73ZM164.51,42.51c-1.16,0-1.75.26-1.75.79,0,.19.06.33.18.45.12.12.27.18.46.18.32,0,.59-.14.81-.41.2-.26.31-.56.31-.9v-.11Z"/>
        <path class="cls-23" d="M169.76,43.9c-.37.4-.9.6-1.57.6-.27,0-.5-.02-.7-.05v2.05h-.75v-6.19h.72c0,.35-.02.63-.06.84h.02c.25-.61.71-.91,1.39-.91.48,0,.86.17,1.12.5.27.33.4.82.4,1.44,0,.73-.19,1.3-.56,1.71M168.62,40.85c-.35,0-.63.18-.85.53-.19.31-.28.67-.28,1.07v1.37c.22.07.46.1.73.1.87,0,1.31-.55,1.31-1.67,0-.93-.31-1.4-.91-1.4"/>
        <path class="cls-23" d="M173.8,44.45c0-.39.01-.67.04-.83h-.02c-.23.6-.7.9-1.41.9-.34,0-.62-.1-.83-.31-.21-.21-.32-.47-.32-.81,0-.45.22-.79.65-1.04.44-.25,1.05-.38,1.84-.38v-.19c0-.34-.06-.58-.19-.73-.14-.16-.36-.24-.68-.24-.4,0-.82.1-1.25.3l-.14-.59c.48-.2.98-.3,1.49-.3,1.02,0,1.52.48,1.52,1.45v1.58c0,.44,0,.83.02,1.19h-.73ZM173.75,42.51c-1.16,0-1.75.26-1.75.79,0,.19.06.33.18.45.12.12.27.18.46.18.32,0,.59-.14.81-.41.2-.26.31-.56.31-.9v-.11Z"/>
        <path class="cls-23" d="M179.05,43.89c-.38.41-.91.62-1.58.62-.53,0-1-.05-1.42-.17v-5.96h.75v2.01c0,.31-.02.56-.07.77h.02c.24-.61.69-.91,1.36-.91.49,0,.86.17,1.12.5.27.33.4.81.4,1.44,0,.72-.19,1.29-.58,1.7M177.93,40.85c-.35,0-.63.18-.85.53-.19.31-.28.66-.28,1.06v1.37c.22.07.46.1.73.1.87,0,1.31-.55,1.31-1.67,0-.93-.31-1.4-.91-1.4"/>
        <path class="cls-23" d="M181.52,39.35c-.1.09-.22.14-.35.14s-.26-.05-.35-.14c-.1-.09-.15-.21-.15-.34s.05-.25.15-.35c.1-.09.21-.14.35-.14s.26.05.35.14c.1.09.15.21.15.35s-.05.25-.15.34M180.79,40.31h.75v4.13h-.75v-4.13Z"/>
        <rect class="cls-23" x="183.17" y="38.38" width=".75" height="6.07"/>
        <path class="cls-23" d="M186.23,39.35c-.1.09-.22.14-.35.14s-.26-.05-.35-.14c-.1-.09-.15-.21-.15-.34s.05-.25.15-.35c.1-.09.22-.14.35-.14s.26.05.35.14c.1.09.15.21.15.35s-.05.25-.15.34M185.5,40.31h.75v4.13h-.75v-4.13Z"/>
        <path class="cls-23" d="M189.87,44.42c-.25.06-.53.09-.83.09-.42,0-.71-.1-.87-.29-.16-.18-.24-.5-.24-.95v-2.38h-.85v-.58h.85v-1.34l.75-.21v1.55h1.16v.58h-1.16v2.11c0,.34.04.57.13.69.08.12.24.18.47.18.19,0,.36-.02.52-.07l.07.62Z"/>
        <path class="cls-23" d="M192.55,44.8c-.25.66-.52,1.12-.81,1.39-.29.26-.67.38-1.13.38-.14,0-.3-.02-.48-.05l.08-.67c.14.04.31.06.5.06.47,0,.83-.34,1.09-1.02l.17-.45-1.56-4.13h.85l.78,2.15c.09.25.19.59.32,1.02h.02c.07-.28.21-.71.41-1.27l.67-1.9h.82l-1.7,4.48Z"/>
        <path class="cls-23" d="M130.78,51.35c-.46.4-1.08.6-1.86.6-.17,0-.38,0-.63-.01-.25,0-.43-.01-.54-.01v-4.62l1.39-.03c1.57,0,2.36.76,2.36,2.28,0,.77-.24,1.37-.72,1.79M129.07,47.8c-.12,0-.35,0-.69.02v3.56c.17.03.38.04.61.04.56,0,1.01-.14,1.33-.43.35-.31.52-.77.52-1.38,0-1.21-.59-1.81-1.76-1.81"/>
        <path class="cls-23" d="M134.99,50.24h-2.23c-.02.83.34,1.25,1.08,1.25.34,0,.67-.07.97-.2l.09.49c-.35.14-.74.21-1.18.21-1.06,0-1.6-.58-1.6-1.75,0-.52.13-.94.4-1.27.28-.34.66-.51,1.13-.51s.79.14,1.03.41c.21.25.32.58.32.99,0,.12,0,.25-.02.38M134.38,49.8c0-.27-.06-.49-.2-.65-.13-.15-.32-.23-.56-.23-.48,0-.76.29-.84.88h1.6Z"/>
        <path class="cls-23" d="M137.38,51.93h-.71l-1.24-3.41h.69l.72,2.08c.09.28.16.51.2.69h.01c.06-.22.12-.45.19-.68l.73-2.1h.66l-1.25,3.41Z"/>
        <path class="cls-23" d="M141.81,50.24h-2.23c-.02.83.34,1.25,1.08,1.25.34,0,.67-.07.97-.2l.09.49c-.35.14-.74.21-1.18.21-1.06,0-1.6-.58-1.6-1.75,0-.52.13-.94.4-1.27.28-.34.66-.51,1.13-.51s.79.14,1.03.41c.21.25.32.58.32.99,0,.12,0,.25-.02.38M141.21,49.8c0-.27-.06-.49-.2-.65-.13-.15-.32-.23-.57-.23-.48,0-.76.29-.84.88h1.6Z"/>
        <rect class="cls-23" x="142.71" y="46.93" width=".62" height="5"/>
        <path class="cls-23" d="M146.91,51.46c-.31.35-.71.53-1.2.53-1.02,0-1.53-.58-1.53-1.73,0-.51.15-.94.44-1.27.31-.35.71-.52,1.21-.52.46,0,.83.13,1.09.39.29.29.43.73.43,1.31,0,.52-.15.95-.45,1.29M145.78,48.97c-.27,0-.49.1-.67.29-.2.22-.3.53-.3.93,0,.85.32,1.27.97,1.27.27,0,.49-.1.66-.31.19-.23.28-.55.28-.96,0-.82-.32-1.23-.95-1.23"/>
        <path class="cls-23" d="M150.67,51.47c-.31.33-.74.5-1.29.5-.22,0-.42-.01-.58-.04v1.69h-.61v-5.1h.59c0,.29-.02.52-.05.69h.01c.2-.5.59-.75,1.14-.75.4,0,.71.14.92.41.22.28.33.67.33,1.19,0,.6-.16,1.07-.46,1.41M149.73,48.97c-.29,0-.52.15-.7.44-.16.26-.23.55-.23.88v1.12c.18.06.38.08.61.08.72,0,1.08-.46,1.08-1.37,0-.77-.25-1.15-.75-1.15"/>
        <path class="cls-23" d="M156.19,51.93v-2.19c0-.52-.19-.78-.56-.78-.26,0-.48.12-.66.36-.2.26-.29.58-.29.98v1.62h-.61v-2.19c0-.52-.19-.78-.56-.78-.26,0-.49.13-.67.38-.19.26-.28.58-.28.97v1.62h-.62v-3.41h.6c0,.29-.02.53-.05.72h0c.22-.52.61-.78,1.18-.78.32,0,.56.09.73.28.12.14.19.3.21.49.23-.52.62-.77,1.17-.77.68,0,1.01.37,1.01,1.12v2.35h-.62Z"/>
        <path class="cls-23" d="M160.52,50.24h-2.23c-.02.83.34,1.25,1.08,1.25.34,0,.67-.07.97-.2l.09.49c-.35.14-.74.21-1.18.21-1.06,0-1.6-.58-1.6-1.75,0-.52.13-.94.4-1.27.28-.34.66-.51,1.13-.51s.79.14,1.03.41c.21.25.32.58.32.99,0,.12,0,.25-.02.38M159.91,49.8c0-.27-.06-.49-.2-.65-.14-.15-.32-.23-.57-.23-.48,0-.76.29-.84.88h1.6Z"/>
        <path class="cls-23" d="M163.6,51.93v-2.19c0-.51-.19-.77-.58-.77-.28,0-.51.13-.69.38s-.27.57-.27.95v1.63h-.62v-3.41h.6c0,.3-.02.54-.05.72h.01c.22-.52.62-.78,1.2-.78.69,0,1.03.36,1.03,1.09v2.38h-.62Z"/>
        <path class="cls-23" d="M167.02,51.91c-.21.05-.44.07-.69.07-.34,0-.58-.08-.72-.23-.13-.15-.19-.41-.19-.79v-1.96h-.7v-.48h.7v-1.1l.62-.17v1.27h.95v.48h-.95v1.74c0,.28.03.47.1.56.07.1.2.15.39.15.16,0,.3-.02.43-.06l.06.51Z"/>
        <path class="cls-23" d="M171.51,49.75c-.32.29-.75.44-1.29.44-.15,0-.29,0-.42-.02v1.75h-.63v-4.62c.41-.02.79-.03,1.16-.03.53,0,.94.12,1.23.37.28.24.43.57.43.98,0,.47-.16.84-.47,1.13M170.26,47.8c-.17,0-.32,0-.46.01v1.82c.15.03.31.04.48.04.7,0,1.05-.32,1.05-.97,0-.61-.36-.91-1.07-.91"/>
        <path class="cls-23" d="M174.42,49.07c-.71-.13-1.06.37-1.06,1.49v1.37h-.62v-3.41h.6c0,.28-.02.55-.07.81h.01c.19-.64.58-.93,1.17-.87l-.03.61Z"/>
        <path class="cls-23" d="M177.54,51.46c-.31.35-.71.53-1.21.53-1.02,0-1.53-.58-1.53-1.73,0-.51.15-.94.44-1.27.31-.35.71-.52,1.21-.52.46,0,.83.13,1.09.39.29.29.44.73.44,1.31,0,.52-.15.95-.45,1.29M176.41,48.97c-.27,0-.49.1-.67.29-.2.22-.3.53-.3.93,0,.85.32,1.27.97,1.27.27,0,.49-.1.66-.31.19-.23.28-.55.28-.96,0-.82-.32-1.23-.95-1.23"/>
        <path class="cls-23" d="M181.28,53.3c-.34.25-.78.38-1.3.38-.44,0-.79-.09-1.04-.26-.26-.18-.39-.43-.39-.76,0-.39.19-.69.57-.9-.22-.1-.33-.27-.33-.51,0-.26.12-.45.38-.58-.33-.2-.5-.51-.5-.94,0-.36.12-.66.37-.9.27-.25.63-.38,1.07-.38.15,0,.31.02.48.06h1.16v.49h-.56c.18.14.27.35.27.63,0,.37-.12.66-.35.88-.26.24-.62.35-1.08.35-.13,0-.25-.02-.36-.05-.15.07-.22.17-.22.29,0,.17.19.25.58.27l.62.02c.76.03,1.15.36,1.15.99,0,.37-.17.67-.5.92M180.45,51.92l-.66-.03c-.1,0-.16,0-.2,0-.29.2-.44.42-.44.67,0,.2.09.36.26.47.17.11.39.17.66.17.34,0,.6-.07.8-.21.19-.13.28-.31.28-.52,0-.35-.23-.54-.7-.55M180.64,49.12c-.14-.14-.33-.2-.57-.2s-.45.07-.6.22c-.14.14-.21.32-.21.54,0,.5.26.75.79.75.24,0,.44-.07.58-.2.14-.13.21-.31.21-.55s-.06-.42-.2-.56"/>
        <path class="cls-23" d="M184.26,49.07c-.71-.13-1.06.37-1.06,1.49v1.37h-.62v-3.41h.6c0,.28-.02.55-.07.81h.01c.19-.64.58-.93,1.17-.87l-.03.61Z"/>
        <path class="cls-23" d="M186.85,51.93c0-.32.01-.55.03-.68h-.01c-.19.49-.58.74-1.16.74-.28,0-.51-.08-.69-.25-.17-.17-.26-.39-.26-.67,0-.37.18-.65.54-.86.36-.21.87-.31,1.51-.31v-.16c0-.28-.05-.48-.16-.6-.11-.13-.3-.2-.56-.2-.33,0-.67.08-1.03.25l-.12-.49c.39-.16.8-.24,1.23-.24.84,0,1.26.4,1.26,1.19v1.3c0,.36,0,.69.02.98h-.6ZM186.81,50.33c-.96,0-1.44.22-1.44.65,0,.15.05.28.14.37.1.1.22.15.38.15.26,0,.49-.11.67-.34.17-.21.25-.46.25-.74v-.09Z"/>
        <path class="cls-23" d="M192.81,51.93v-2.19c0-.52-.19-.78-.56-.78-.26,0-.48.12-.66.36-.2.26-.29.58-.29.98v1.62h-.61v-2.19c0-.52-.19-.78-.56-.78-.26,0-.49.13-.67.38-.19.26-.28.58-.28.97v1.62h-.62v-3.41h.6c0,.29-.02.53-.05.72h0c.22-.52.61-.78,1.19-.78.32,0,.56.09.73.28.12.14.19.3.21.49.23-.52.62-.77,1.17-.77.68,0,1.01.37,1.01,1.12v2.35h-.62Z"/>
        <rect class="cls-23" x="280.63" width=".87" height="66.67"/>
        <rect class="cls-23" x="105.09" width=".87" height="66.67"/>
      </g>
    </g>
  </g>
</svg>